<svg id="图层_1" data-name="图层 1" xmlns="http://www.w3.org/2000/svg" viewBox="0 0 655.82 309.03"><defs><style>.cls-1,.cls-19,.cls-26,.cls-27,.cls-28{fill:#fff;}.cls-1{stroke:#93278f;stroke-width:2.18px;}.cls-1,.cls-12,.cls-13,.cls-14,.cls-15,.cls-16,.cls-17,.cls-18,.cls-19,.cls-20,.cls-21,.cls-22,.cls-23,.cls-25,.cls-26,.cls-28,.cls-3,.cls-33,.cls-35,.cls-36,.cls-4,.cls-5,.cls-8{stroke-miterlimit:10;}.cls-12,.cls-2{fill:#f3f3f3;}.cls-14,.cls-15,.cls-16,.cls-17,.cls-21,.cls-22,.cls-23,.cls-24,.cls-3,.cls-35,.cls-36,.cls-4,.cls-5,.cls-8{fill:none;}.cls-12,.cls-13,.cls-14,.cls-15,.cls-16,.cls-17,.cls-18,.cls-19,.cls-20,.cls-25,.cls-26,.cls-28,.cls-3,.cls-33,.cls-35,.cls-36,.cls-4,.cls-5,.cls-8{stroke:#000;}.cls-3,.cls-4,.cls-5{stroke-width:0.36px;}.cls-4{stroke-dasharray:1.45 1.45;}.cls-5{stroke-dasharray:1.46 1.46;}.cls-6{font-size:21.6px;}.cls-32,.cls-34,.cls-37,.cls-6{font-family:TimesNewRomanPS-BoldItalicMT, Times New Roman;font-weight:700;}.cls-29,.cls-32,.cls-34,.cls-37,.cls-6{font-style:italic;}.cls-7{font-family:TimesNewRomanPSMT, Times New Roman;font-weight:400;font-style:normal;}.cls-12,.cls-13,.cls-8{stroke-width:2px;}.cls-9{fill:#de1d31;}.cls-10{fill:#707a84;}.cls-11{fill:#1f262f;}.cls-14{stroke-width:0.3px;}.cls-15{stroke-width:3.36px;}.cls-16{stroke-width:5.04px;}.cls-17{stroke-width:0.84px;}.cls-18,.cls-19{stroke-width:0.13px;}.cls-20{stroke-width:0.09px;}.cls-21,.cls-22,.cls-23{stroke:#1d63ed;stroke-width:2.01px;}.cls-22{stroke-dasharray:6.74 6.74;}.cls-23{stroke-dasharray:6.81 6.81;}.cls-25,.cls-28{stroke-width:0.5px;}.cls-26{stroke-width:0.25px;}.cls-29{font-size:18px;font-family:TimesNewRomanPS-ItalicMT, Times New Roman;}.cls-30{letter-spacing:-0.04em;}.cls-31{fill:#1d63ed;}.cls-32{font-size:21px;fill:#93278f;}.cls-33{fill:#faebd9;stroke-width:2.25px;}.cls-34{font-size:20.25px;}.cls-35{stroke-width:1.29px;}.cls-36{stroke-width:1.29px;}.cls-37{font-size:24px;}</style></defs><rect class="cls-1" x="14.49" y="20.78" width="448.45" height="255.75"/><rect class="cls-2" x="27.11" y="57.15" width="296.25" height="181.4"/><polyline class="cls-3" points="323.36 237.83 323.36 238.55 322.63 238.55"/><line class="cls-4" x1="321.18" y1="238.55" x2="28.56" y2="238.55"/><polyline class="cls-3" points="27.84 238.55 27.11 238.55 27.11 237.83"/><line class="cls-5" x1="27.11" y1="236.36" x2="27.11" y2="58.61"/><polyline class="cls-3" points="27.11 57.88 27.11 57.15 27.84 57.15"/><line class="cls-4" x1="29.29" y1="57.15" x2="321.9" y2="57.15"/><polyline class="cls-3" points="322.63 57.15 323.36 57.15 323.36 57.88"/><line class="cls-5" x1="323.36" y1="59.34" x2="323.36" y2="237.09"/><text class="cls-6" transform="translate(198.37 127.69)">Data center <tspan x="-10.5" y="25.92">cooling system</tspan><tspan class="cls-7"><tspan x="31.18" y="51.84">FMU</tspan></tspan></text><path class="cls-8" d="M41.19,84.86c-.12,1.16-.93,8.36-5,11.9a7.21,7.21,0,0,1-3.84,1.79"/><rect class="cls-8" x="32.7" y="98.23" width="49.47" height="22.97"/><path class="cls-8" d="M73.75,84.86c.12,1.16.93,8.36,5,11.9a7.14,7.14,0,0,0,3.84,1.79"/><line class="cls-8" x1="39.72" y1="85.42" x2="75.16" y2="85.42"/><ellipse class="cls-8" cx="50.98" cy="91.53" rx="6.4" ry="1.66"/><ellipse class="cls-8" cx="63.9" cy="91.53" rx="6.4" ry="1.66"/><line class="cls-8" x1="35.9" y1="105.06" x2="55.74" y2="105.06"/><line class="cls-8" x1="35.9" y1="116.25" x2="55.74" y2="116.25"/><line class="cls-8" x1="35.9" y1="112.52" x2="55.74" y2="112.52"/><line class="cls-8" x1="35.9" y1="108.79" x2="55.74" y2="108.79"/><line class="cls-8" x1="59.05" y1="105.06" x2="78.89" y2="105.06"/><line class="cls-8" x1="59.05" y1="116.25" x2="78.89" y2="116.25"/><line class="cls-8" x1="59.05" y1="112.52" x2="78.89" y2="112.52"/><line class="cls-8" x1="59.05" y1="108.79" x2="78.89" y2="108.79"/><g id="g312"><g id="g314"><path id="path338" class="cls-9" d="M120.62,204.9a2.73,2.73,0,1,1,2.73,2.73,2.73,2.73,0,0,1-2.73-2.73"/><path id="path340" class="cls-10" d="M68.29,224.64,60,234h7.28l5-6.16A10.69,10.69,0,0,1,68.29,224.64Zm60-37.9c-3.4.12-7.22,3.81-7.22,3.77a3.59,3.59,0,0,0-4.44-3.69c-2.9.46-6.56,4.11-6.6,4.11a4.05,4.05,0,0,0-2.49-3.94c-2.28-.86-5.66-.22-10,4.62-3.43,3.8-12.17,13.76-15.46,17.49a10.54,10.54,0,0,1,3,2.67l10.45-12.92s6-7.94,9.38-8.71c2.75-.64,3.18,2,2.15,4.44a129.65,129.65,0,0,1-7.17,13.28s7.13-9.26,8.34-10.79,7.22-9.09,9.87-6.43-5.18,13.77-5.18,13.77l4-5.14s8.09-10.62,11.62-9.3-2.28,11-2.28,11a18.14,18.14,0,0,0,5.35-8.34c.86-2.6.12-6-3.28-5.89"/><path id="path342" class="cls-11" d="M51.28,213.13a4.31,4.31,0,0,1,4.6-4.22,4.79,4.79,0,0,1,3.46,1.35,4.82,4.82,0,0,1,3.46-1.35,4.24,4.24,0,0,1,4.53,4.22v10H64.8V213.5c0-1.57-.8-2.44-2-2.44a2.18,2.18,0,0,0-2.18,2.44v9.67H58V213.5a2.19,2.19,0,0,0-2.2-2.44c-1.22,0-2,.87-2,2.44v9.67H51.28v-10"/><path id="path344" class="cls-11" d="M90.89,220.92a2.6,2.6,0,1,0-2.6-2.6A2.59,2.59,0,0,0,90.89,220.92Zm2.57-11.77H96v9.08a5.12,5.12,0,1,1-10.24,0,5,5,0,0,1,4.93-5.13,4.32,4.32,0,0,1,2.75,1.05v-5"/><path id="path346" class="cls-11" d="M79.32,218.27A2.61,2.61,0,1,0,76.71,221,2.59,2.59,0,0,0,79.32,218.27Zm2.44,0a5.05,5.05,0,1,1-5.05-5,5,5,0,0,1,5.05,5"/><path id="path348" class="cls-11" d="M107.14,217.39a2.39,2.39,0,0,0-4.69,0Zm2.4.84c0,.18,0,.53,0,.89h-7.07A2.7,2.7,0,0,0,105.1,221a3.82,3.82,0,0,0,2.6-1l1.2,1.8a6.1,6.1,0,0,1-3.8,1.35,5,5,0,0,1-5.08-5,4.76,4.76,0,1,1,9.52,0"/><path id="path350" class="cls-11" d="M114.23,209.15h2.49v14h-2.49v-14"/><path id="path352" class="cls-11" d="M136.11,219.84l1.58,1.6a5.13,5.13,0,0,1-3.91,1.79,5,5,0,1,1,0-9.93,5.08,5.08,0,0,1,3.87,1.75L136,216.53a2.91,2.91,0,0,0-2.21-1,2.74,2.74,0,0,0,0,5.47,2.79,2.79,0,0,0,2.33-1.16"/><path id="path354" class="cls-11" d="M122,213.3h2.52v9.87H122V213.3"/><path id="path356" class="cls-11" d="M146.28,221a2.74,2.74,0,1,1,2.61-2.73A2.59,2.59,0,0,1,146.28,221Zm2.61-7.7v.7a5.19,5.19,0,0,0-2.61-.7,5,5,0,1,0,0,9.93,5.1,5.1,0,0,0,2.61-.71v.66h2.51V213.3h-2.51"/></g></g><rect class="cls-12" x="122.08" y="94.95" width="54.47" height="22.68"/><path class="cls-12" d="M121.24,117.63c-.66.05-1.89-6-1.89-11.34S120.58,94.9,121.24,95C122.51,95,122.51,117.53,121.24,117.63Z"/><path class="cls-12" d="M177.48,117.63c.66.05,1.89-6,1.89-11.34S178.14,94.9,177.48,95C176.21,95,176.21,117.53,177.48,117.63Z"/><line class="cls-8" x1="129.78" y1="87.89" x2="129.79" y2="94.84"/><path class="cls-8" d="M129.77,88.27a4.13,4.13,0,0,1,4.31-3.92"/><line class="cls-8" x1="133.73" y1="84.35" x2="155.83" y2="84.35"/><line class="cls-8" x1="133.49" y1="88.93" x2="133.5" y2="94.6"/><path class="cls-8" d="M137.3,85.25"/><path class="cls-8" d="M133.48,90.72"/><line class="cls-8" x1="134.53" y1="87.69" x2="155.48" y2="87.69"/><path class="cls-8" d="M133.49,88.81a1.17,1.17,0,0,1,1.22-1.12"/><rect class="cls-13" x="120.75" y="118.24" width="4.64" height="2.21"/><rect class="cls-13" x="172.85" y="118.24" width="4.64" height="2.21"/><rect class="cls-12" x="125.76" y="89.16" width="13.58" height="5.5"/><line class="cls-14" x1="155.67" y1="85.28" x2="155.32" y2="88.67"/><rect class="cls-15" x="128.59" y="147.9" width="40.86" height="26.41"/><line class="cls-15" x1="161.58" y1="148.21" x2="161.58" y2="174"/><line class="cls-15" x1="137.32" y1="148.21" x2="137.32" y2="174"/><line class="cls-15" x1="145.4" y1="148.21" x2="145.4" y2="174"/><line class="cls-15" x1="153.49" y1="148.21" x2="153.49" y2="174"/><line class="cls-16" x1="127.34" y1="143.27" x2="127.34" y2="178.87"/><line class="cls-16" x1="170.65" y1="142.94" x2="170.65" y2="179.2"/><line class="cls-17" x1="119.76" y1="145.03" x2="178.49" y2="145.22"/><line class="cls-17" x1="119.6" y1="176.9" x2="178.33" y2="177.09"/><path class="cls-18" d="M78.44,160.19a15,15,0,1,1-15-15A15,15,0,0,1,78.44,160.19Zm-15-12a12,12,0,1,0,12,12A12,12,0,0,0,63.48,148.21Z"/><path class="cls-18" d="M78.44,152.82a17.89,17.89,0,0,0-9-8,16.44,16.44,0,0,0-11.82-.06,3.56,3.56,0,0,1,3.51-4c4.58,0,9.16,0,13.74,0a3.61,3.61,0,0,1,3.6,3.6C78.48,147.16,78.44,150,78.44,152.82Zm-.76-8.26a2.24,2.24,0,1,0-2.31,2.14A2.27,2.27,0,0,0,77.68,144.56Z"/><path class="cls-18" d="M58.15,175.84v2.33c-3.45,0-6.85.09-10.25,0a3.37,3.37,0,0,1-3.15-3.21c-.12-2.35,0-4.72,0-7.21,1.19,0,2.31,0,3.41,0a1.38,1.38,0,0,1,.94.6A16.91,16.91,0,0,0,58.15,175.84Zm-9.68-3.62a2.24,2.24,0,1,0,2.21,2.24A2.28,2.28,0,0,0,48.47,172.22Z"/><path class="cls-18" d="M47.91,154.21c0,1.09-.35,1.56-1.48,1.53-2.66-.08-5.32,0-8,0-1.52,0-2,.49-2,2,0,1.71,0,3.41,0,5.12,0,1.28.54,1.82,1.83,1.83,2.7,0,5.41.06,8.11,0,1.07,0,1.53.34,1.51,1.52H41.2c-1.66,0-3.33,0-5,0-.89,0-1.29-.32-1.28-1.24,0-3.21,0-6.41,0-9.62,0-.68.22-1.14,1-1.14Z"/><path class="cls-18" d="M45.48,158.77v1.38l1.39.11.32,2.85H38v-5.82h9.14L47,158.64Zm-4.59,0H39.53v1.36h1.36Zm1.61,1.35h1.36V158.8H42.5Z"/><path class="cls-18" d="M37.2,167.73h3c0,2.24.06,4.46,0,6.68,0,1-1,.76-1.65.8s-1.29-.07-1.3-.94C37.19,172.13,37.2,170,37.2,167.73Z"/><path class="cls-18" d="M40.19,152.66h-3c0-1.73-.06-3.41,0-5.09.06-1.14,1-.8,1.73-.86s1.24.17,1.24,1Z"/><path class="cls-18" d="M51.87,148.38a1.3,1.3,0,0,1,.14-2c.66-.58,1.36-.47,2.08.21Z"/><path class="cls-19" d="M42.5,160.14V158.8h1.36v1.34Z"/><path class="cls-18" d="M63.48,155.72a4.5,4.5,0,1,1-4.54,4.51A4.52,4.52,0,0,1,63.48,155.72Zm0,1.5a3,3,0,1,0,3,3A3,3,0,0,0,63.46,157.22Z"/><path class="cls-18" d="M58.05,151.08l3.88-1.39c0,1.63,0,3,0,4.32,0,.17-.3.5-.4.48s-.39-.27-.58-.43c0,0,0-.08,0-.12-.28-1.56-.5-3.17-3.05-2.26Z"/><path class="cls-18" d="M65.81,154.54l1.54-2.69-1.52-1.62.2-.31,3.64,1.71C68,154,66.65,155,65.81,154.54Z"/><path class="cls-18" d="M57.81,157.86l-2.71-1.54-1.64,1.46-.29-.17,1.7-3.64C57.15,155.64,58.18,157,57.81,157.86Z"/><path class="cls-18" d="M73.89,158.56c-3.17.45-4.52.25-4.73-.72,1.48-.48,3.82-.16,2.9-3.19l.49.16Z"/><path class="cls-18" d="M54.31,165.59l-1.38-3.87c1.62,0,3,0,4.31,0,.18,0,.36.34.53.52l-.48.45a.42.42,0,0,1-.12,0c-1.66.17-3.06.59-2.35,2.95Z"/><path class="cls-18" d="M71.79,164.11l1.59-1.45.3.17L72,166.44c-2.26-1.58-3.37-3-2.92-3.86Z"/><path class="cls-18" d="M60.83,170.5l-3.64-1.73c2-2.57,3.05-3.38,3.88-2.87l-1.53,2.66L61,170.14Z"/><path class="cls-18" d="M68.83,169.33l-3.66,1.33c-.58-2.37-.3-4.52.65-4.77.47,1.48.12,3.85,3.15,2.9Z"/><path class="cls-18" d="M67.7,164.55l2.86,3c-1.15-.14-2.25,0-2.76-.42s-.44-1.58-.62-2.4Z"/><path class="cls-18" d="M56.23,167c0-.61,0-1.22,0-1.82,0-.27.23-.68.44-.74a18.91,18.91,0,0,1,2.15-.36c0,.28,0,.63-.13.82-.65.8-1.36,1.55-2.06,2.32Z"/><path class="cls-18" d="M70.69,153.65c-.07.6.13,1.7-.32,2.18s-1.59.45-2.42.64l-.08-.33Z"/><path class="cls-20" d="M53.46,160a6.66,6.66,0,0,1,2.16-.79c.58,0,1.77.23,1.84,1H53.63Z"/><path class="cls-18" d="M65,152.35c-.15.49-.17,1.67-1.46,1.94v-4.11Z"/><path class="cls-18" d="M73.47,160.29l-1.87,2c-.81-.62-1.93-.69-2.23-2Z"/><path class="cls-18" d="M63.4,166.16V170l-.24.18c-.54-.69-1.5-1.36-1.51-2.06A2,2,0,0,1,63.4,166.16Z"/><path class="cls-18" d="M59.32,155.82,56.7,153c.79.1,1.88-.06,2.4.41s.42,1.56.6,2.38Z"/><path class="cls-19" d="M63.46,157.22a3,3,0,1,1-3,3A3,3,0,0,1,63.46,157.22Zm-.05,4.49a1.47,1.47,0,0,0,1.5-1.5,1.37,1.37,0,0,0-1.37-1.47,1.39,1.39,0,0,0-1.57,1.4C61.93,161.07,62.51,161.56,63.41,161.71Z"/><path class="cls-18" d="M63.41,161.71c-.9-.15-1.48-.64-1.44-1.57a1.39,1.39,0,0,1,1.57-1.4,1.37,1.37,0,0,1,1.37,1.47A1.47,1.47,0,0,1,63.41,161.71Z"/><polyline class="cls-21" points="358.99 266.42 358.99 269.77 355.64 269.77"/><line class="cls-22" x1="348.9" y1="269.77" x2="28.53" y2="269.77"/><polyline class="cls-21" points="25.16 269.77 21.81 269.77 21.81 266.42"/><line class="cls-23" x1="21.81" y1="259.61" x2="21.81" y2="58.61"/><polyline class="cls-21" points="21.81 55.2 21.81 51.85 25.16 51.85"/><line class="cls-22" x1="31.9" y1="51.85" x2="352.27" y2="51.85"/><polyline class="cls-21" points="355.64 51.85 358.99 51.85 358.99 55.2"/><line class="cls-23" x1="358.99" y1="62.01" x2="358.99" y2="263.01"/><path class="cls-24" d="M0,298.6v-16a1.1,1.1,0,0,0,0-.16,10.81,10.81,0,0,1,1.82-5.36,10.88,10.88,0,0,1,7.43-4.77c.38-.07.77-.1,1.15-.15H127.81l.18,0a10.11,10.11,0,0,1,3.42.8,10.89,10.89,0,0,1,6.69,8.47c.06.37.09.75.14,1.13v16a.76.76,0,0,0,0,.16,10,10,0,0,1-.68,3.11,10.87,10.87,0,0,1-8.59,7c-.38.07-.76.1-1.13.15H10.43a.58.58,0,0,0-.14,0A11.05,11.05,0,0,1,.14,299.74C.08,299.36.05,299,0,298.6Zm17.94-12.29a10.22,10.22,0,0,0-1.05.51,4.34,4.34,0,0,0-1.71,4.82,4.71,4.71,0,0,0,2.43,2.87c.12.06.14.13.15.27a9.13,9.13,0,0,0,.17,1.38A4.42,4.42,0,0,0,23,299.41a3.59,3.59,0,0,0,1.74-.87c.17.12.32.25.48.35a3.92,3.92,0,0,0,.53.29,4.36,4.36,0,0,0,4.71-1,4.59,4.59,0,0,0,1.33-3.42.24.24,0,0,1,.15-.26,6.82,6.82,0,0,0,.68-.41,4.41,4.41,0,0,0,1.79-4.93A3.87,3.87,0,0,0,32,286.45l-.29-.09c0-.32,0-.63,0-.93a4.36,4.36,0,0,0-3.91-3.72,4.55,4.55,0,0,0-2.81.66.29.29,0,0,1-.33,0,4.42,4.42,0,0,0-4.56-.09A4,4,0,0,0,17.94,286.31Zm100,10.15v-5.79c0-.77,0-.77.56-1.3a4.09,4.09,0,0,1,1.46-1,1.86,1.86,0,0,1,2.55,1.33,4.56,4.56,0,0,1,.15,1.1c0,1.81,0,3.62,0,5.42v.24h.53v-.17c0-1.76,0-3.53,0-5.29a7.3,7.3,0,0,0-.11-1.23,2.29,2.29,0,0,0-2.86-2,3,3,0,0,0-1.42.74c-.37.29-.71.63-1.06.94,0,0,0,0,0-.08a2.29,2.29,0,0,0-3.1-1.5,4.29,4.29,0,0,0-1.79,1.28.48.48,0,0,0-.1.17l-.06-.06-.08-1.32h-.45v8.49h.52v-5.81c0-.74,0-.75.54-1.26a4.3,4.3,0,0,1,1.5-1,1.83,1.83,0,0,1,2.52,1.29,4.43,4.43,0,0,1,.16,1.15c0,1.8,0,3.61,0,5.41v.24ZM65,289.52c0-.08,0-.14-.06-.2a2.16,2.16,0,0,0-1.23-1.39,2.51,2.51,0,0,0-1.85,0,4.59,4.59,0,0,0-1.78,1.27,1.39,1.39,0,0,0-.16.17c0-.11,0-.18,0-.24,0-.33,0-.65,0-1,0-.05-.06-.14-.1-.15a2.17,2.17,0,0,0-.36,0v8.5h.52v-5.79c0-.76,0-.76.55-1.29a4,4,0,0,1,1.5-1,1.84,1.84,0,0,1,2.51,1.29,5.59,5.59,0,0,1,.18,1.47v5.33h.53v-.21c0-1.87,0-3.74,0-5.6a1.47,1.47,0,0,1,.53-1.25,5.24,5.24,0,0,1,1.4-1,1.86,1.86,0,0,1,2.65,1.29,6.3,6.3,0,0,1,.17,1.44c0,1.7,0,3.4,0,5.1v.22h.52c0-.07,0-.11,0-.16V291a5.34,5.34,0,0,0-.2-1.59,2.13,2.13,0,0,0-1.54-1.58,2.62,2.62,0,0,0-2.11.31,7.64,7.64,0,0,0-1.45,1.21Zm-16.77,1.79v.25c0,1.05,0,2.11,0,3.16a.8.8,0,0,1-.46.83,4.64,4.64,0,0,1-3.24.52,3.9,3.9,0,0,1-3-2.61,8,8,0,0,1-.19-5.19A4.17,4.17,0,0,1,45.43,285a3.59,3.59,0,0,1,2.42.78c.17.14.33.3.51.46l.34-.39a4.3,4.3,0,0,0-1.52-1.07,4.69,4.69,0,0,0-4,.23,4.94,4.94,0,0,0-2.48,3.24,8.41,8.41,0,0,0-.27,3.08,7.13,7.13,0,0,0,.72,2.72,4.53,4.53,0,0,0,2.62,2.35,5.38,5.38,0,0,0,2.73.14,4.14,4.14,0,0,0,2.15-1.09.35.35,0,0,0,.12-.29V291c0-.06,0-.12,0-.17H45.33v.48Zm34.93-2,.16-.11a4.89,4.89,0,0,1,2.36-.91,1.86,1.86,0,0,1,2.16,1.37,10.73,10.73,0,0,1,.2,1.4c0,.11,0,.15-.15.17-.56.08-1.13.15-1.69.26a8,8,0,0,0-2.43.81,2.35,2.35,0,0,0-1.32,2.34,2.05,2.05,0,0,0,1.59,2,3.31,3.31,0,0,0,1.82,0,6.74,6.74,0,0,0,2-1.1l.18-.14c0,.29,0,.54,0,.79s0,.4.43.37l0,0a.49.49,0,0,0,0-.12c0-1.86,0-3.71,0-5.57a4.9,4.9,0,0,0-.22-1.37,2,2,0,0,0-1.68-1.57,4.75,4.75,0,0,0-1.19,0,5.57,5.57,0,0,0-2.53,1s0,0,0,.06ZM50.63,299.76a1.84,1.84,0,0,1-.09.28c-.09.18,0,.25.16.3a2.09,2.09,0,0,0,2.12-.55A4.8,4.8,0,0,0,54,297.88c1.15-3.23,2.28-6.47,3.42-9.71,0-.06,0-.12.06-.21-.13,0-.25,0-.36,0a.21.21,0,0,0-.26.18L56,290.67c-.58,1.68-1.15,3.37-1.73,5.06,0,.07-.07.14-.12.26,0-.11-.08-.17-.1-.23-.54-1.36-1.09-2.73-1.62-4.09L51,288.14c0-.07-.08-.16-.13-.17a4.6,4.6,0,0,0-.53,0,1.77,1.77,0,0,0,.08.22c1,2.6,2.08,5.2,3.16,7.79a1.81,1.81,0,0,1,0,1.46,5.75,5.75,0,0,1-1,1.88,1.63,1.63,0,0,1-1.69.52Zm58.1-3.3V288h-.53v6.18a.41.41,0,0,1-.08.27c-.34.36-.68.73-1.05,1.06a2.63,2.63,0,0,1-1.7.7,1.74,1.74,0,0,1-2-1.45,6.29,6.29,0,0,1-.16-1.44c0-1.7,0-3.4,0-5.1V288h-.52a.62.62,0,0,0,0,.13c0,1.78,0,3.57,0,5.36a7.25,7.25,0,0,0,.16,1.46,2,2,0,0,0,1.33,1.58,2.87,2.87,0,0,0,2.72-.35c.41-.3.76-.67,1.13-1a1.39,1.39,0,0,0,.16-.17l.08,1.47Zm-34.46,0v-.24q0-3,0-6.08a.34.34,0,0,1,.07-.25c.46-.41.91-.82,1.4-1.19a2.42,2.42,0,0,1,1.52-.46,1.72,1.72,0,0,1,1.86,1.45,7,7,0,0,1,.16,1.44c0,1.7,0,3.4,0,5.11v.22h.52a1,1,0,0,0,0-.17c0-1.76,0-3.51,0-5.27a6.89,6.89,0,0,0-.16-1.5,2.05,2.05,0,0,0-1.44-1.64,3.22,3.22,0,0,0-1.6-.06,3.62,3.62,0,0,0-1.65.9l-.69.61L74.2,288h-.45v8.48Zm21.86-7.86-.15-.12a3.85,3.85,0,0,0-2.63-.71,2.47,2.47,0,0,0-1.82.93,2,2,0,0,0,.42,2.82,5.79,5.79,0,0,0,.64.36c.46.2.93.37,1.4.56a4.92,4.92,0,0,1,1.39.75,1.51,1.51,0,0,1,.54.85,1.75,1.75,0,0,1-1.32,2,3.45,3.45,0,0,1-2.78-.42L91,295.1l-.33.41a4.52,4.52,0,0,0,3.75,1.12,2.36,2.36,0,0,0,1.93-1.4A2.11,2.11,0,0,0,96,293a2.86,2.86,0,0,0-1-.65c-.75-.31-1.5-.61-2.24-.94a1.69,1.69,0,0,1-1-1,1.62,1.62,0,0,1,1.06-2,2.84,2.84,0,0,1,2.36.23l.64.4Zm3.27,7.86V288h-.51v8.48Zm.33-11.3a.57.57,0,1,0-1.14,0,.6.6,0,0,0,.56.65A.59.59,0,0,0,99.73,285.16Z"/><path d="M17.94,286.31a4,4,0,0,1,2.14-4,4.42,4.42,0,0,1,4.56.09.29.29,0,0,0,.33,0,4.55,4.55,0,0,1,2.81-.66,4.36,4.36,0,0,1,3.91,3.72c0,.3,0,.61,0,.93l.29.09a3.87,3.87,0,0,1,2.44,2.74,4.41,4.41,0,0,1-1.79,4.93,6.82,6.82,0,0,1-.68.41.24.24,0,0,0-.15.26,4.59,4.59,0,0,1-1.33,3.42,4.36,4.36,0,0,1-4.71,1,3.92,3.92,0,0,1-.53-.29c-.16-.1-.31-.23-.48-.35a3.59,3.59,0,0,1-1.74.87,4.42,4.42,0,0,1-5.08-3.25,9.13,9.13,0,0,1-.17-1.38c0-.14,0-.21-.15-.27a4.71,4.71,0,0,1-2.43-2.87,4.34,4.34,0,0,1,1.71-4.82A10.22,10.22,0,0,1,17.94,286.31Zm13.63.44a5.32,5.32,0,0,1-2.71,3,7,7,0,0,1,1.94,1.93,6,6,0,0,1,1,2.55,2.87,2.87,0,0,0,.39-.23,6.14,6.14,0,0,0,.71-.55,4.05,4.05,0,0,0,.39-5.61A3.19,3.19,0,0,0,31.57,286.75Zm-10.86,2.94a7.07,7.07,0,0,1-1.64-1.22,4.29,4.29,0,0,1-1-1.71c-1.26.15-2.47,1.65-2.62,3.28a4.12,4.12,0,0,0,2.37,4.1A6.5,6.5,0,0,1,20.71,289.69Zm1.51-.31a6.12,6.12,0,0,0-4,5,6.28,6.28,0,0,0,6.3-1A7.12,7.12,0,0,1,22.22,289.38Zm4.86-.52a6.51,6.51,0,0,0-.37-3.45A5.43,5.43,0,0,0,24.92,283c-.09-.07-.15-.08-.23,0a10.93,10.93,0,0,0-.85.81,6.21,6.21,0,0,0-1.38,4.48c0,.17,0,.34.06.53A7.05,7.05,0,0,1,27.08,288.86Zm-2,4.47c.44.27.83.54,1.26.75a6.05,6.05,0,0,0,4.57.45c.58-.17.52,0,.4-.65a5.91,5.91,0,0,0-2.43-3.67,6.92,6.92,0,0,0-1.49-.82A7.2,7.2,0,0,1,25.08,293.33Zm0,4.91a3.63,3.63,0,0,0,4.14.42,4.08,4.08,0,0,0,2.2-3.86,6.68,6.68,0,0,1-5.34-.41A5.33,5.33,0,0,1,25.05,298.24Zm-6.94-3.48c.05.39.08.73.14,1.07A4,4,0,0,0,23,299a3.07,3.07,0,0,0,1.46-.76,4.29,4.29,0,0,1-.86-1.8,6.54,6.54,0,0,1-.11-2A6.71,6.71,0,0,1,18.11,294.76Zm3.94-7.23a6.38,6.38,0,0,1,2.38-4.82l-.08-.06a4.2,4.2,0,0,0-2.84-.5,4,4,0,0,0-3.17,3.11,2.5,2.5,0,0,0,0,1A5.31,5.31,0,0,1,22.05,287.53Zm9.21-1.25a3.55,3.55,0,0,0-1.71-3.53,4,4,0,0,0-4.36,0,6.37,6.37,0,0,1,2.37,4.81A5.32,5.32,0,0,1,31.26,286.28Zm-4.25,3a6.64,6.64,0,0,0-4.42,0,6.8,6.8,0,0,0,2.21,3.81A6.72,6.72,0,0,0,27,289.25Zm.47-.27.86.42a.23.23,0,0,0,.27,0c.28-.18.58-.34.85-.54A4.36,4.36,0,0,0,31.05,287l.14-.38a9.2,9.2,0,0,0-1,.07A5.55,5.55,0,0,0,27.63,288a.23.23,0,0,0-.08.12C27.52,288.4,27.5,288.69,27.48,289Zm-2.67,4.61c-.27.18-.53.35-.79.54a.2.2,0,0,0-.09.13,6,6,0,0,0,.18,2.45,3.47,3.47,0,0,0,.66,1.24c.08-.11.16-.21.22-.31a5.26,5.26,0,0,0,.64-3.43.28.28,0,0,0-.08-.11ZM22.13,289c0-.27-.05-.55-.08-.83A.17.17,0,0,0,22,288a5.62,5.62,0,0,0-2.62-1.29,6.94,6.94,0,0,0-.91-.05l0,.07a8.44,8.44,0,0,0,.45.84A5.56,5.56,0,0,0,21,289.41a.17.17,0,0,0,.14,0Z"/><path class="cls-25" d="M118,296.46h-.53v-.24c0-1.8,0-3.61,0-5.41a4.43,4.43,0,0,0-.16-1.15,1.83,1.83,0,0,0-2.52-1.29,4.3,4.3,0,0,0-1.5,1c-.54.51-.54.52-.54,1.26v5.81h-.52V288h.45l.08,1.32.06.06a.48.48,0,0,1,.1-.17,4.29,4.29,0,0,1,1.79-1.28,2.29,2.29,0,0,1,3.1,1.5s0,.07,0,.08c.35-.31.69-.65,1.06-.94a3,3,0,0,1,1.42-.74,2.29,2.29,0,0,1,2.86,2,7.3,7.3,0,0,1,.11,1.23c0,1.76,0,3.53,0,5.29v.17h-.53v-.24c0-1.8,0-3.61,0-5.42a4.56,4.56,0,0,0-.15-1.1,1.86,1.86,0,0,0-2.55-1.33,4.09,4.09,0,0,0-1.46,1c-.56.53-.56.53-.56,1.3v5.79Z"/><path class="cls-25" d="M65,289.52l.15-.16a7.64,7.64,0,0,1,1.45-1.21,2.62,2.62,0,0,1,2.11-.31,2.13,2.13,0,0,1,1.54,1.58,5.34,5.34,0,0,1,.2,1.59v5.29c0,.05,0,.09,0,.16h-.52v-.22c0-1.7,0-3.4,0-5.1a6.3,6.3,0,0,0-.17-1.44,1.86,1.86,0,0,0-2.65-1.29,5.24,5.24,0,0,0-1.4,1,1.47,1.47,0,0,0-.53,1.25c0,1.86,0,3.73,0,5.6v.21h-.53v-5.33a5.59,5.59,0,0,0-.18-1.47A1.84,1.84,0,0,0,62,288.37a4,4,0,0,0-1.5,1c-.55.53-.55.53-.55,1.29v5.79H59.4V288a2.17,2.17,0,0,1,.36,0s.09.1.1.15c0,.33,0,.65,0,1,0,.06,0,.13,0,.24a1.39,1.39,0,0,1,.16-.17,4.59,4.59,0,0,1,1.78-1.27,2.51,2.51,0,0,1,1.85,0A2.16,2.16,0,0,1,65,289.32C65,289.38,65,289.44,65,289.52Z"/><path class="cls-25" d="M48.24,291.31H45.33v-.48H48.8c0,.05,0,.11,0,.17v4.2a.35.35,0,0,1-.12.29,4.14,4.14,0,0,1-2.15,1.09,5.38,5.38,0,0,1-2.73-.14,4.53,4.53,0,0,1-2.62-2.35,7.13,7.13,0,0,1-.72-2.72,8.41,8.41,0,0,1,.27-3.08,4.94,4.94,0,0,1,2.48-3.24,4.69,4.69,0,0,1,4-.23,4.3,4.3,0,0,1,1.52,1.07l-.34.39c-.18-.16-.34-.32-.51-.46a3.59,3.59,0,0,0-2.42-.78,4.17,4.17,0,0,0-4.07,3.23,8,8,0,0,0,.19,5.19,3.9,3.9,0,0,0,3,2.61,4.64,4.64,0,0,0,3.24-.52.8.8,0,0,0,.46-.83c0-1.05,0-2.11,0-3.16Z"/><path class="cls-25" d="M83.17,289.27l-.27-.4s0-.05,0-.06a5.57,5.57,0,0,1,2.53-1,4.75,4.75,0,0,1,1.19,0,2,2,0,0,1,1.68,1.57,4.9,4.9,0,0,1,.22,1.37c0,1.86,0,3.71,0,5.57a.49.49,0,0,1,0,.12l0,0c-.41,0-.41,0-.43-.37s0-.5,0-.79l-.18.14a6.74,6.74,0,0,1-2,1.1,3.31,3.31,0,0,1-1.82,0,2.05,2.05,0,0,1-1.59-2,2.35,2.35,0,0,1,1.32-2.34,8,8,0,0,1,2.43-.81c.56-.11,1.13-.18,1.69-.26.12,0,.17-.06.15-.17a10.73,10.73,0,0,0-.2-1.4,1.86,1.86,0,0,0-2.16-1.37,4.89,4.89,0,0,0-2.36.91Zm4.88,2.33c-.74.13-1.44.25-2.15.39a5.89,5.89,0,0,0-1.72.61,2,2,0,0,0-1.13,2.12,1.42,1.42,0,0,0,.89,1.25,2.78,2.78,0,0,0,2.21,0,6.8,6.8,0,0,0,1.78-1.13.4.4,0,0,0,.12-.26c0-.91,0-1.83,0-2.74Z"/><path class="cls-25" d="M50.63,299.76l.29.07a1.63,1.63,0,0,0,1.69-.52,5.75,5.75,0,0,0,1-1.88,1.81,1.81,0,0,0,0-1.46c-1.08-2.59-2.11-5.19-3.16-7.79a1.77,1.77,0,0,1-.08-.22,4.6,4.6,0,0,1,.53,0s.11.1.13.17l1.38,3.53c.53,1.36,1.08,2.73,1.62,4.09,0,.06.05.12.1.23,0-.12.09-.19.12-.26.58-1.69,1.15-3.38,1.73-5.06l.87-2.53a.21.21,0,0,1,.26-.18c.11,0,.23,0,.36,0,0,.09,0,.15-.06.21-1.14,3.24-2.27,6.48-3.42,9.71a4.8,4.8,0,0,1-1.15,1.91,2.09,2.09,0,0,1-2.12.55c-.17,0-.25-.12-.16-.3A1.84,1.84,0,0,0,50.63,299.76Z"/><path class="cls-25" d="M108.73,296.46h-.45L108.2,295a1.39,1.39,0,0,1-.16.17c-.37.33-.72.7-1.13,1a2.87,2.87,0,0,1-2.72.35,2,2,0,0,1-1.33-1.58,7.25,7.25,0,0,1-.16-1.46c0-1.79,0-3.58,0-5.36a.62.62,0,0,1,0-.13h.52v.22c0,1.7,0,3.4,0,5.1a6.29,6.29,0,0,0,.16,1.44,1.74,1.74,0,0,0,2,1.45,2.63,2.63,0,0,0,1.7-.7c.37-.33.71-.7,1.05-1.06a.41.41,0,0,0,.08-.27V288h.53Z"/><path class="cls-25" d="M74.27,296.46h-.52V288h.45l.07,1.35.69-.61a3.62,3.62,0,0,1,1.65-.9,3.22,3.22,0,0,1,1.6.06,2.05,2.05,0,0,1,1.44,1.64,6.89,6.89,0,0,1,.16,1.5c0,1.76,0,3.51,0,5.27a1,1,0,0,1,0,.17h-.52v-.22c0-1.71,0-3.41,0-5.11a7,7,0,0,0-.16-1.44,1.72,1.72,0,0,0-1.86-1.45,2.42,2.42,0,0,0-1.52.46c-.49.37-.94.78-1.4,1.19a.34.34,0,0,0-.07.25q0,3,0,6.08Z"/><path class="cls-25" d="M96.13,288.6l-.31.42-.64-.4a2.84,2.84,0,0,0-2.36-.23,1.62,1.62,0,0,0-1.06,2,1.69,1.69,0,0,0,1,1c.74.33,1.49.63,2.24.94a2.86,2.86,0,0,1,1,.65,2.11,2.11,0,0,1,.33,2.28,2.36,2.36,0,0,1-1.93,1.4,4.52,4.52,0,0,1-3.75-1.12l.33-.41.83.56a3.45,3.45,0,0,0,2.78.42,1.75,1.75,0,0,0,1.32-2,1.51,1.51,0,0,0-.54-.85,4.92,4.92,0,0,0-1.39-.75c-.47-.19-.94-.36-1.4-.56a5.79,5.79,0,0,1-.64-.36,2,2,0,0,1-.42-2.82,2.47,2.47,0,0,1,1.82-.93,3.85,3.85,0,0,1,2.63.71Z"/><path class="cls-25" d="M99.4,296.46h-.51V288h.51Z"/><path class="cls-25" d="M99.73,285.16a.59.59,0,0,1-.58.63.6.6,0,0,1-.56-.65.57.57,0,1,1,1.14,0Z"/><path class="cls-26" d="M31.57,286.75a3.19,3.19,0,0,1,1.69,1.05,4.05,4.05,0,0,1-.39,5.61,6.14,6.14,0,0,1-.71.55,2.87,2.87,0,0,1-.39.23,6,6,0,0,0-1-2.55,7,7,0,0,0-1.94-1.93A5.32,5.32,0,0,0,31.57,286.75Z"/><path class="cls-26" d="M20.71,289.69a6.5,6.5,0,0,0-2.92,4.45,4.12,4.12,0,0,1-2.37-4.1c.15-1.63,1.36-3.13,2.62-3.28a4.29,4.29,0,0,0,1,1.71A7.07,7.07,0,0,0,20.71,289.69Z"/><path class="cls-27" d="M22.22,289.38a7.12,7.12,0,0,0,2.27,3.92,6.28,6.28,0,0,1-6.3,1A6.12,6.12,0,0,1,22.22,289.38Z"/><path class="cls-27" d="M27.08,288.86a7.05,7.05,0,0,0-4.56,0c0-.19-.05-.36-.06-.53a6.21,6.21,0,0,1,1.38-4.48,10.93,10.93,0,0,1,.85-.81c.08-.08.14-.07.23,0a5.43,5.43,0,0,1,1.79,2.39A6.51,6.51,0,0,1,27.08,288.86Z"/><path class="cls-27" d="M25.08,293.33a7.2,7.2,0,0,0,2.31-3.94,6.92,6.92,0,0,1,1.49.82,5.91,5.91,0,0,1,2.43,3.67c.12.6.18.48-.4.65a6.05,6.05,0,0,1-4.57-.45C25.91,293.87,25.52,293.6,25.08,293.33Z"/><path class="cls-26" d="M25.05,298.24a5.33,5.33,0,0,0,1-3.85,6.68,6.68,0,0,0,5.34.41,4.08,4.08,0,0,1-2.2,3.86A3.63,3.63,0,0,1,25.05,298.24Z"/><path class="cls-26" d="M18.11,294.76a6.71,6.71,0,0,0,5.41-.35,6.54,6.54,0,0,0,.11,2,4.29,4.29,0,0,0,.86,1.8A3.07,3.07,0,0,1,23,299a4,4,0,0,1-4.78-3.17C18.19,295.49,18.16,295.15,18.11,294.76Z"/><path class="cls-26" d="M22.05,287.53a5.31,5.31,0,0,0-3.7-1.25,2.5,2.5,0,0,1,0-1,4,4,0,0,1,3.17-3.11,4.2,4.2,0,0,1,2.84.5l.08.06A6.38,6.38,0,0,0,22.05,287.53Z"/><path class="cls-26" d="M31.26,286.28a5.32,5.32,0,0,0-3.7,1.25,6.37,6.37,0,0,0-2.37-4.81,4,4,0,0,1,4.36,0A3.55,3.55,0,0,1,31.26,286.28Z"/><path class="cls-26" d="M27,289.25a6.72,6.72,0,0,1-2.21,3.8,6.8,6.8,0,0,1-2.21-3.81A6.64,6.64,0,0,1,27,289.25Z"/><path class="cls-26" d="M27.48,289c0-.29,0-.58.07-.87a.23.23,0,0,1,.08-.12,5.55,5.55,0,0,1,2.59-1.28,9.2,9.2,0,0,1,1-.07l-.14.38a4.36,4.36,0,0,1-1.59,1.84c-.27.2-.57.36-.85.54a.23.23,0,0,1-.27,0Z"/><path class="cls-26" d="M24.81,293.59l.74.51a.28.28,0,0,1,.08.11,5.26,5.26,0,0,1-.64,3.43c-.06.1-.14.2-.22.31a3.47,3.47,0,0,1-.66-1.24,6,6,0,0,1-.18-2.45.2.2,0,0,1,.09-.13C24.28,293.94,24.54,293.77,24.81,293.59Z"/><path class="cls-26" d="M22.13,289l-1,.47a.17.17,0,0,1-.14,0,5.56,5.56,0,0,1-2.17-1.85,8.44,8.44,0,0,1-.45-.84l0-.07a6.94,6.94,0,0,1,.91.05A5.62,5.62,0,0,1,22,288a.17.17,0,0,1,.07.13C22.08,288.4,22.1,288.68,22.13,289Z"/><path class="cls-28" d="M88.05,291.6v.22c0,.91,0,1.83,0,2.74a.4.4,0,0,1-.12.26A6.8,6.8,0,0,1,86.15,296a2.78,2.78,0,0,1-2.21,0,1.42,1.42,0,0,1-.89-1.25,2,2,0,0,1,1.13-2.12A5.89,5.89,0,0,1,85.9,292C86.61,291.85,87.31,291.73,88.05,291.6Z"/><text class="cls-29" transform="translate(16.65 14.96)">Standa<tspan class="cls-30" x="50" y="0">r</tspan><tspan x="56.34" y="0">dized interface</tspan></text><path class="cls-24" d="M356.83,271.11H264.07V241.47h92.76Zm-66.09-16.23a5.66,5.66,0,0,1-2.88.66c-6.82,0-13.64,0-20.45,0-.89,0-1.13.27-1.16,1.14a13.56,13.56,0,0,0,.77,4.77,7.63,7.63,0,0,0,5.16,5.32,19.31,19.31,0,0,0,9.64.2,14.42,14.42,0,0,0,8.22-4.82,18.51,18.51,0,0,0,3-5.1.78.78,0,0,1,.8-.55,4.58,4.58,0,0,0,4-2.24c.43-.75.38-1-.46-1.25a11.77,11.77,0,0,0-2.77-.31c-.53,0-.71-.14-.85-.64a4.65,4.65,0,0,0-2.49-3A5.23,5.23,0,0,0,290.74,254.88Zm16.69,1.6c-.38-.21-.59-.31-.78-.43a4.33,4.33,0,0,0-3.17-.55,4.62,4.62,0,0,0-3.7,5.49,4.49,4.49,0,0,0,4.53,3.78A4.6,4.6,0,0,0,309,260c.05-2.46,0-4.92,0-7.38a2.82,2.82,0,0,0-.08-.65.72.72,0,0,0-.87-.56.68.68,0,0,0-.62.75c0,.6,0,1.2,0,1.8Zm32.43,4.37h6.51c.64,0,1.06-.33,1-.85a4.84,4.84,0,0,0-.94-2.73,4.66,4.66,0,0,0-5.48-1.5,4.6,4.6,0,0,0-2.81,4.86,4.41,4.41,0,0,0,3,3.75,4.33,4.33,0,0,0,4.5-.69c.53-.41.64-.89.32-1.28s-.76-.37-1.27,0a3,3,0,0,1-2.17.67A2.83,2.83,0,0,1,339.86,260.85Zm-8.48-2.05-.17-.1v-6.29c0-.69-.29-1.06-.8-1s-.77.33-.77,1v11.35c0,.57.33,1,.76,1s.8-.4.81-1c0-.82,0-1.64,0-2.46a1,1,0,0,1,.33-.64c.77-.63.81-.6,1.47.16q1.56,1.78,3.14,3.55a.79.79,0,0,0,1.16.22c.38-.28.39-.76,0-1.22a.76.76,0,0,0-.11-.14c-1-1.17-2.06-2.35-3.12-3.49-.37-.4-.31-.6.12-.86,1-.63,2-1.29,3-1.94a.74.74,0,0,0,.29-1.08.75.75,0,0,0-1.1-.23,3.14,3.14,0,0,0-.31.18l-2.91,1.9C332.59,258,332,258.41,331.38,258.8Zm-12,1.33a4.7,4.7,0,0,0-4.85-4.71,4.61,4.61,0,0,0-4.45,4.72,4.5,4.5,0,0,0,4.62,4.62A4.59,4.59,0,0,0,319.41,260.13Zm5.71-4.79a10.52,10.52,0,0,0-1.78.44,4.44,4.44,0,0,0-2.8,4,4.63,4.63,0,0,0,7.43,3.94c.47-.34.58-.75.3-1.12a.77.77,0,0,0-1.15-.19c-.14.09-.26.19-.4.27a3.06,3.06,0,0,1-4.5-3.56A3.08,3.08,0,0,1,327,257.6c.54.39,1.06.33,1.31-.07s.11-.83-.44-1.21A4.89,4.89,0,0,0,325.12,255.34Zm25.07,1.07c-.07-.2-.08-.37-.17-.45s-.49-.49-.72-.48-.53.29-.7.53a1.29,1.29,0,0,0-.11.69c0,1.26,0,2.52,0,3.78,0,1,0,2.09,0,3.13,0,.63.4,1.06.86,1s.71-.39.72-1.06c0-1.08,0-2.16,0-3.24a3.15,3.15,0,0,1,4.21-3.2c.61.17,1,0,1.14-.4s-.09-.92-.72-1.11a4.73,4.73,0,0,0-3.45.2C350.91,256,350.59,256.19,350.19,256.41Zm-75.81-1.68c.34,0,.68,0,1,0s.62-.14.6-.59,0-1.15,0-1.73c0-.42-.19-.57-.58-.57h-1.19c-1.55,0-1.35-.18-1.36,1.37S272.87,254.73,274.38,254.73Zm4,0c.32,0,.64,0,1,0s.64-.17.62-.63,0-1.12,0-1.67-.16-.59-.56-.59h-1.25c-1.48,0-1.31-.16-1.32,1.3S276.83,254.73,278.39,254.73Zm-7.88,0c.32,0,.64,0,1,0s.59-.13.58-.55c0-.6,0-1.2,0-1.8,0-.38-.14-.55-.53-.54h-1.31c-1.46,0-1.3-.06-1.29,1.29C268.92,254.93,268.72,254.71,270.51,254.72Zm11.82,0c.32,0,.64,0,1,0,.48,0,.65-.19.63-.64s0-1.08,0-1.62-.21-.65-.66-.63h-1.14c-1.5,0-1.34-.18-1.34,1.34S280.78,254.73,282.33,254.73Zm4,0c.31,0,.64,0,.95,0s.63-.17.61-.6c0-.16,0-.32,0-.48,0-2.08.27-1.8-1.82-1.81-1.46,0-1.32-.17-1.32,1.3S284.74,254.73,286.32,254.73Zm-4-7.32h1c.37,0,.57-.12.56-.52,0-.6,0-1.2,0-1.79a.69.69,0,0,0-.46-.45,8.64,8.64,0,0,0-1.44,0c-1.37,0-1.22-.18-1.22,1.2C280.77,247.41,280.77,247.41,282.34,247.41ZM274.43,251h1.08c.35,0,.5-.15.49-.51q0-.9,0-1.8c0-.36-.16-.5-.51-.5h-1.38c-1.39,0-1.24-.15-1.24,1.26S272.87,251,274.43,251Zm4-2.79c-.36,0-.72,0-1.08,0s-.5.16-.49.51q0,.9,0,1.8c0,.36.15.5.5.5h1.38c1.42,0,1.24.08,1.25-1.26C280,248.23,280,248.23,278.4,248.24Zm3.88,2.79a6.19,6.19,0,0,0,1.14,0,.65.65,0,0,0,.47-.44c.06-.61,0-1.24,0-1.86,0-.35-.21-.48-.54-.48h-1.32c-1.45,0-1.28-.21-1.28,1.26S280.77,251,282.28,251Z"/><path class="cls-31" d="M290.74,254.88a5.23,5.23,0,0,1,.49-5.78,4.65,4.65,0,0,1,2.49,3c.14.5.32.63.85.64a11.77,11.77,0,0,1,2.77.31c.84.21.89.5.46,1.25a4.58,4.58,0,0,1-4,2.24.78.78,0,0,0-.8.55,18.51,18.51,0,0,1-3,5.1,14.42,14.42,0,0,1-8.22,4.82,19.31,19.31,0,0,1-9.64-.2,7.63,7.63,0,0,1-5.16-5.32,13.56,13.56,0,0,1-.77-4.77c0-.87.27-1.14,1.16-1.14,6.81,0,13.63,0,20.45,0A5.66,5.66,0,0,0,290.74,254.88Z"/><path class="cls-31" d="M307.43,256.48v-2.56c0-.6,0-1.2,0-1.8a.68.68,0,0,1,.62-.75.72.72,0,0,1,.87.56,2.82,2.82,0,0,1,.08.65c0,2.46,0,4.92,0,7.38a4.6,4.6,0,0,1-4.68,4.81,4.49,4.49,0,0,1-4.53-3.78,4.62,4.62,0,0,1,3.7-5.49,4.33,4.33,0,0,1,3.17.55C306.84,256.17,307.05,256.27,307.43,256.48Zm-3.06.53a3,3,0,0,0-3.11,3.09,3.08,3.08,0,0,0,6.15,0A3,3,0,0,0,304.37,257Z"/><path class="cls-31" d="M339.86,260.85a2.83,2.83,0,0,0,2.62,2.27,3,3,0,0,0,2.17-.67c.51-.41,1-.41,1.27,0s.21.87-.32,1.28a4.33,4.33,0,0,1-4.5.69,4.41,4.41,0,0,1-3-3.75,4.6,4.6,0,0,1,2.81-4.86,4.66,4.66,0,0,1,5.48,1.5,4.84,4.84,0,0,1,.94,2.73c.05.52-.37.85-1,.85h-6.51Zm0-1.61c.26,0,.46,0,.65,0H345c.65,0,.74-.17.43-.74a3.11,3.11,0,0,0-4.43-1A2.32,2.32,0,0,0,339.84,259.24Z"/><path class="cls-31" d="M331.38,258.8c.6-.39,1.21-.76,1.8-1.15l2.91-1.9a3.14,3.14,0,0,1,.31-.18.75.75,0,0,1,1.1.23.74.74,0,0,1-.29,1.08c-1,.65-2,1.31-3,1.94-.43.26-.49.46-.12.86,1.06,1.14,2.08,2.32,3.12,3.49a.76.76,0,0,1,.11.14c.35.46.34.94,0,1.22a.79.79,0,0,1-1.16-.22q-1.57-1.77-3.14-3.55c-.66-.76-.7-.79-1.47-.16a1,1,0,0,0-.33.64c0,.82,0,1.64,0,2.46,0,.59-.34,1-.81,1s-.76-.41-.76-1V252.36c0-.67.27-1,.77-1s.8.36.8,1v6.29Z"/><path class="cls-31" d="M319.41,260.13a4.59,4.59,0,0,1-4.68,4.63,4.5,4.5,0,0,1-4.62-4.62,4.61,4.61,0,0,1,4.45-4.72A4.7,4.7,0,0,1,319.41,260.13ZM314.77,257a3.07,3.07,0,0,0-3.11,3.06,3.09,3.09,0,0,0,6.18,0A3.08,3.08,0,0,0,314.77,257Z"/><path class="cls-31" d="M325.12,255.34a4.89,4.89,0,0,1,2.76,1c.55.38.69.82.44,1.21s-.77.46-1.31.07a3.08,3.08,0,0,0-3.77,4.86,3,3,0,0,0,3.48.22c.14-.08.26-.18.4-.27a.77.77,0,0,1,1.15.19c.28.37.17.78-.3,1.12a4.63,4.63,0,0,1-7.43-3.94,4.44,4.44,0,0,1,2.8-4A10.52,10.52,0,0,1,325.12,255.34Z"/><path class="cls-31" d="M350.19,256.41c.4-.22.72-.41,1.06-.57a4.73,4.73,0,0,1,3.45-.2c.63.19.89.61.72,1.11s-.53.57-1.14.4a3.15,3.15,0,0,0-4.21,3.2c0,1.08,0,2.16,0,3.24,0,.67-.27,1.05-.72,1.06s-.84-.41-.86-1c0-1,0-2.09,0-3.13,0-1.26,0-2.52,0-3.78a1.29,1.29,0,0,1,.11-.69c.17-.24.45-.52.7-.53s.5.29.72.48S350.12,256.21,350.19,256.41Z"/><path class="cls-31" d="M274.38,254.73c-1.51,0-1.52,0-1.51-1.52s-.19-1.36,1.36-1.37h1.19c.39,0,.59.15.58.57,0,.58,0,1.16,0,1.73s-.17.61-.6.59S274.72,254.73,274.38,254.73Z"/><path class="cls-31" d="M278.39,254.73c-1.56,0-1.56,0-1.56-1.59s-.16-1.29,1.32-1.3h1.25c.4,0,.58.18.56.59s0,1.11,0,1.67-.15.67-.62.63S278.71,254.73,278.39,254.73Z"/><path class="cls-31" d="M270.51,254.73c-1.79,0-1.59.2-1.59-1.6,0-1.35-.17-1.3,1.29-1.29h1.31c.39,0,.54.16.53.54,0,.6,0,1.2,0,1.8,0,.42-.18.57-.58.55S270.83,254.72,270.51,254.73Z"/><path class="cls-31" d="M282.33,254.73c-1.55,0-1.56,0-1.55-1.55s-.16-1.33,1.34-1.34h1.14c.45,0,.67.16.66.63s0,1.08,0,1.62-.15.67-.63.64C283,254.71,282.65,254.73,282.33,254.73Z"/><path class="cls-31" d="M286.32,254.73c-1.58,0-1.58,0-1.58-1.59s-.14-1.3,1.32-1.3c2.09,0,1.8-.27,1.82,1.81,0,.16,0,.32,0,.48,0,.43-.17.62-.61.6S286.63,254.73,286.32,254.73Z"/><path class="cls-31" d="M282.34,247.41c-1.57,0-1.57,0-1.56-1.58,0-1.38-.15-1.19,1.22-1.2a8.64,8.64,0,0,1,1.44,0,.69.69,0,0,1,.46.45c.05.59,0,1.19,0,1.79,0,.4-.19.53-.56.52Z"/><path class="cls-31" d="M274.43,251c-1.56,0-1.57,0-1.56-1.53s-.15-1.26,1.24-1.26h1.38c.35,0,.52.14.51.5q0,.9,0,1.8c0,.36-.14.52-.49.51Z"/><path class="cls-31" d="M278.4,248.24c1.56,0,1.56,0,1.56,1.54,0,1.34.17,1.26-1.25,1.26h-1.38c-.35,0-.51-.14-.5-.5q0-.9,0-1.8c0-.35.13-.52.49-.51S278,248.24,278.4,248.24Z"/><path class="cls-31" d="M282.28,251c-1.51,0-1.51,0-1.5-1.53s-.17-1.25,1.28-1.26h1.32c.33,0,.53.13.54.48,0,.62,0,1.25,0,1.86a.65.65,0,0,1-.47.44A6.19,6.19,0,0,1,282.28,251Z"/><path class="cls-24" d="M304.37,257a3,3,0,0,1,3,3.05,3.08,3.08,0,0,1-6.15,0A3,3,0,0,1,304.37,257Z"/><path class="cls-24" d="M339.84,259.24a2.32,2.32,0,0,1,1.15-1.71,3.11,3.11,0,0,1,4.43,1c.31.57.22.74-.43.74h-4.5C340.3,259.28,340.1,259.26,339.84,259.24Z"/><path class="cls-24" d="M314.77,257a3.08,3.08,0,0,1,3.07,3,3.09,3.09,0,0,1-6.18,0A3.07,3.07,0,0,1,314.77,257Z"/><text class="cls-32" transform="translate(234.48 44.27)">AlphaDataCenterCooling</text><rect class="cls-33" x="518.54" y="80.14" width="136.16" height="140.13"/><text class="cls-34" transform="translate(555.32 131.22)">Control<tspan x="-10.69" y="24.3">Algorithm</tspan><tspan x="0.58" y="48.6">(Agent)</tspan></text><path class="cls-35" d="M586.47,64.69c-9.6-8.45-26.58-20.53-54.15-30.12-25.91-9-50.52-12.13-65.48-13.34"/><polygon points="587.02 58.77 585.25 63.66 580.51 65.78 592.07 69.99 587.02 58.77"/><path class="cls-36" d="M471.43,275.28c21.52-3.7,55.9-10.89,82.68-23.3,23-10.65,30.91-20.77,34-26.92"/><polygon points="475.82 279.3 472.99 274.93 474.17 269.87 463.82 276.54 475.82 279.3"/><text class="cls-37" transform="translate(530.58 27.56)">Observation</text><text class="cls-37" transform="translate(544.01 272.28)">Action</text></svg>