<svg id="图层_1" data-name="图层 1" xmlns="http://www.w3.org/2000/svg" viewBox="0 0 671.41 323.34"><defs><style>.cls-1,.cls-2,.cls-20,.cls-27{fill:#fff;}.cls-2{stroke:#93278f;stroke-width:2.18px;}.cls-13,.cls-14,.cls-15,.cls-16,.cls-17,.cls-18,.cls-19,.cls-2,.cls-20,.cls-21,.cls-22,.cls-23,.cls-24,.cls-26,.cls-27,.cls-32,.cls-34,.cls-35,.cls-4,.cls-5,.cls-6,.cls-9{stroke-miterlimit:10;}.cls-13,.cls-3{fill:#f3f3f3;}.cls-15,.cls-16,.cls-17,.cls-18,.cls-22,.cls-23,.cls-24,.cls-25,.cls-34,.cls-35,.cls-4,.cls-5,.cls-6,.cls-9{fill:none;}.cls-13,.cls-14,.cls-15,.cls-16,.cls-17,.cls-18,.cls-19,.cls-20,.cls-21,.cls-26,.cls-27,.cls-32,.cls-34,.cls-35,.cls-4,.cls-5,.cls-6,.cls-9{stroke:#000;}.cls-4,.cls-5,.cls-6{stroke-width:0.36px;}.cls-5{stroke-dasharray:1.45 1.45;}.cls-6{stroke-dasharray:1.46 1.46;}.cls-7{font-size:21.6px;}.cls-31,.cls-33,.cls-36,.cls-7{font-family:TimesNewRomanPS-BoldItalicMT, Times New Roman;font-weight:700;}.cls-28,.cls-31,.cls-33,.cls-36,.cls-7{font-style:italic;}.cls-8{font-family:TimesNewRomanPSMT, Times New Roman;font-weight:400;font-style:normal;}.cls-13,.cls-14,.cls-9{stroke-width:2px;}.cls-10{fill:#de1d31;}.cls-11{fill:#707a84;}.cls-12{fill:#1f262f;}.cls-15{stroke-width:0.3px;}.cls-16{stroke-width:3.36px;}.cls-17{stroke-width:5.04px;}.cls-18{stroke-width:0.84px;}.cls-19,.cls-20{stroke-width:0.13px;}.cls-21{stroke-width:0.09px;}.cls-22,.cls-23,.cls-24{stroke:#1d63ed;stroke-width:2.01px;}.cls-23{stroke-dasharray:6.74 6.74;}.cls-24{stroke-dasharray:6.81 6.81;}.cls-26{stroke-width:0.5px;}.cls-27{stroke-width:0.25px;}.cls-28{font-size:18px;font-family:TimesNewRomanPS-ItalicMT, Times New Roman;}.cls-29{letter-spacing:-0.04em;}.cls-30{fill:#1d63ed;}.cls-31{font-size:21px;fill:#93278f;}.cls-32{fill:#faebd9;stroke-width:2.25px;}.cls-33{font-size:20.25px;}.cls-34{stroke-width:1.29px;}.cls-35{stroke-width:1.29px;}.cls-36{font-size:24px;}</style></defs><rect class="cls-1" width="671.41" height="323.34"/><rect class="cls-2" x="23.31" y="26.94" width="448.45" height="255.75"/><rect class="cls-3" x="35.93" y="63.31" width="296.25" height="181.4"/><polyline class="cls-4" points="332.17 243.99 332.17 244.71 331.45 244.71"/><line class="cls-5" x1="329.99" y1="244.71" x2="37.38" y2="244.71"/><polyline class="cls-4" points="36.65 244.71 35.93 244.71 35.93 243.99"/><line class="cls-6" x1="35.93" y1="242.52" x2="35.93" y2="64.77"/><polyline class="cls-4" points="35.93 64.04 35.93 63.31 36.65 63.31"/><line class="cls-5" x1="38.1" y1="63.31" x2="330.72" y2="63.31"/><polyline class="cls-4" points="331.45 63.31 332.17 63.31 332.17 64.04"/><line class="cls-6" x1="332.17" y1="65.5" x2="332.17" y2="243.25"/><text class="cls-7" transform="translate(207.18 133.85)">Data center <tspan x="-10.5" y="25.92">cooling system</tspan><tspan class="cls-8"><tspan x="31.18" y="51.84">FMU</tspan></tspan></text><path class="cls-9" d="M50.19,91.21c-.12,1.16-.93,8.36-5,11.9a7.12,7.12,0,0,1-3.84,1.78" transform="translate(-0.18 -0.18)"/><rect class="cls-9" x="41.52" y="104.39" width="49.47" height="22.97"/><path class="cls-9" d="M82.75,91.21c.12,1.16.93,8.36,5,11.9a7.17,7.17,0,0,0,3.85,1.78" transform="translate(-0.18 -0.18)"/><line class="cls-9" x1="48.54" y1="91.58" x2="83.97" y2="91.58"/><ellipse class="cls-9" cx="59.8" cy="97.69" rx="6.4" ry="1.66"/><ellipse class="cls-9" cx="72.72" cy="97.69" rx="6.4" ry="1.66"/><line class="cls-9" x1="44.72" y1="111.22" x2="64.56" y2="111.22"/><line class="cls-9" x1="44.72" y1="122.41" x2="64.56" y2="122.41"/><line class="cls-9" x1="44.72" y1="118.68" x2="64.56" y2="118.68"/><line class="cls-9" x1="44.72" y1="114.95" x2="64.56" y2="114.95"/><line class="cls-9" x1="67.86" y1="111.22" x2="87.71" y2="111.22"/><line class="cls-9" x1="67.86" y1="122.41" x2="87.71" y2="122.41"/><line class="cls-9" x1="67.86" y1="118.68" x2="87.71" y2="118.68"/><line class="cls-9" x1="67.86" y1="114.95" x2="87.71" y2="114.95"/><g id="g312"><g id="g314"><path id="path338" class="cls-10" d="M129.62,211.24a2.73,2.73,0,1,1,2.73,2.73,2.73,2.73,0,0,1-2.73-2.73" transform="translate(-0.18 -0.18)"/><path id="path340" class="cls-11" d="M77.29,231,69,240.38h7.29l5-6.16A10.54,10.54,0,0,1,77.29,231Zm60-37.9c-3.4.12-7.22,3.82-7.22,3.77a3.59,3.59,0,0,0-4.44-3.69c-2.91.46-6.56,4.11-6.6,4.11a4.07,4.07,0,0,0-2.49-3.94c-2.28-.86-5.66-.22-10,4.62-3.44,3.8-12.17,13.76-15.46,17.49a10.68,10.68,0,0,1,3,2.67l10.45-12.92s6-7.94,9.37-8.71c2.75-.64,3.18,2,2.16,4.44a129.9,129.9,0,0,1-7.18,13.28s7.14-9.25,8.34-10.79,7.22-9.09,9.88-6.43-5.19,13.78-5.19,13.78l4-5.15s8.09-10.62,11.62-9.3-2.29,11-2.29,11a18.1,18.1,0,0,0,5.36-8.34c.85-2.6.12-6-3.28-5.89" transform="translate(-0.18 -0.18)"/><path id="path342" class="cls-12" d="M60.28,219.47a4.31,4.31,0,0,1,4.59-4.22,4.79,4.79,0,0,1,3.47,1.35,4.82,4.82,0,0,1,3.46-1.35,4.24,4.24,0,0,1,4.53,4.22v10H73.8v-9.67c0-1.57-.8-2.44-2-2.44a2.18,2.18,0,0,0-2.18,2.44v9.67H67v-9.67a2.19,2.19,0,0,0-2.2-2.44c-1.22,0-2,.87-2,2.44v9.67H60.28v-10" transform="translate(-0.18 -0.18)"/><path id="path344" class="cls-12" d="M99.89,227.26a2.6,2.6,0,1,0-2.6-2.6A2.58,2.58,0,0,0,99.89,227.26Zm2.57-11.77H105v9.08a5.12,5.12,0,1,1-10.24,0,5,5,0,0,1,4.93-5.13,4.32,4.32,0,0,1,2.75,1.05v-5" transform="translate(-0.18 -0.18)"/><path id="path346" class="cls-12" d="M88.32,224.61a2.62,2.62,0,1,0-2.61,2.73A2.59,2.59,0,0,0,88.32,224.61Zm2.44,0a5.05,5.05,0,1,1-5.05-5,5,5,0,0,1,5.05,5" transform="translate(-0.18 -0.18)"/><path id="path348" class="cls-12" d="M116.14,223.73a2.2,2.2,0,0,0-2.38-1.92,2.18,2.18,0,0,0-2.31,1.92Zm2.39.84c0,.18,0,.54,0,.9h-7.06a2.71,2.71,0,0,0,2.65,1.91,3.82,3.82,0,0,0,2.6-1l1.19,1.8a6,6,0,0,1-3.79,1.36,5,5,0,0,1-5.09-5,4.76,4.76,0,1,1,9.52,0" transform="translate(-0.18 -0.18)"/><path id="path350" class="cls-12" d="M123.23,215.49h2.49v14h-2.49v-14" transform="translate(-0.18 -0.18)"/><path id="path352" class="cls-12" d="M145.11,226.18l1.58,1.6a5.12,5.12,0,0,1-3.91,1.8,5,5,0,1,1,0-9.94,5.08,5.08,0,0,1,3.87,1.75L145,222.87a2.94,2.94,0,0,0-2.21-1,2.74,2.74,0,0,0,0,5.47,2.79,2.79,0,0,0,2.33-1.16" transform="translate(-0.18 -0.18)"/><path id="path354" class="cls-12" d="M131,219.65h2.51v9.86H131v-9.86" transform="translate(-0.18 -0.18)"/><path id="path356" class="cls-12" d="M155.28,227.34a2.74,2.74,0,1,1,2.61-2.73A2.59,2.59,0,0,1,155.28,227.34Zm2.61-7.69v.69a5.19,5.19,0,0,0-2.61-.7,5,5,0,1,0,0,9.94,5.2,5.2,0,0,0,2.61-.71v.65h2.51v-9.87h-2.51" transform="translate(-0.18 -0.18)"/></g></g><rect class="cls-13" x="130.9" y="101.11" width="54.47" height="22.68"/><path class="cls-13" d="M130.24,124c-.66,0-1.89-6-1.89-11.34s1.23-11.39,1.89-11.34C131.51,101.39,131.51,123.87,130.24,124Z" transform="translate(-0.18 -0.18)"/><path class="cls-13" d="M186.47,124c.67,0,1.89-6,1.89-11.34s-1.22-11.39-1.89-11.34C185.2,101.39,185.2,123.87,186.47,124Z" transform="translate(-0.18 -0.18)"/><line class="cls-9" x1="138.59" y1="94.05" x2="138.6" y2="101"/><path class="cls-9" d="M138.77,94.61a4.12,4.12,0,0,1,4.3-3.92" transform="translate(-0.18 -0.18)"/><line class="cls-9" x1="142.54" y1="90.51" x2="164.65" y2="90.51"/><line class="cls-9" x1="142.31" y1="95.09" x2="142.32" y2="100.76"/><path class="cls-9" d="M146.3,91.59" transform="translate(-0.18 -0.18)"/><path class="cls-9" d="M142.48,97.07" transform="translate(-0.18 -0.18)"/><line class="cls-9" x1="143.35" y1="93.85" x2="164.29" y2="93.85"/><path class="cls-9" d="M142.49,95.15A1.17,1.17,0,0,1,143.71,94" transform="translate(-0.18 -0.18)"/><rect class="cls-14" x="129.56" y="124.4" width="4.64" height="2.21"/><rect class="cls-14" x="181.67" y="124.4" width="4.64" height="2.21"/><rect class="cls-13" x="134.58" y="95.32" width="13.58" height="5.5"/><line class="cls-15" x1="164.49" y1="91.44" x2="164.14" y2="94.83"/><rect class="cls-16" x="137.41" y="154.06" width="40.86" height="26.41"/><line class="cls-16" x1="170.39" y1="154.37" x2="170.39" y2="180.16"/><line class="cls-16" x1="146.13" y1="154.37" x2="146.13" y2="180.16"/><line class="cls-16" x1="154.22" y1="154.37" x2="154.22" y2="180.16"/><line class="cls-16" x1="162.31" y1="154.37" x2="162.31" y2="180.16"/><line class="cls-17" x1="136.16" y1="149.43" x2="136.16" y2="185.03"/><line class="cls-17" x1="179.46" y1="149.1" x2="179.46" y2="185.36"/><line class="cls-18" x1="128.57" y1="151.19" x2="187.31" y2="151.38"/><line class="cls-18" x1="128.42" y1="183.06" x2="187.15" y2="183.25"/><path class="cls-19" d="M87.44,166.53a15,15,0,1,1-15-15A15,15,0,0,1,87.44,166.53Zm-15-12a12,12,0,1,0,12,12A12,12,0,0,0,72.47,154.55Z" transform="translate(-0.18 -0.18)"/><path class="cls-19" d="M87.43,159.16a17.81,17.81,0,0,0-9.05-8,16.47,16.47,0,0,0-11.81-.06,3.56,3.56,0,0,1,3.51-4c4.58,0,9.16,0,13.74,0a3.6,3.6,0,0,1,3.6,3.6C87.48,153.5,87.43,156.33,87.43,159.16Zm-.75-8.26A2.24,2.24,0,1,0,84.37,153,2.29,2.29,0,0,0,86.68,150.9Z" transform="translate(-0.18 -0.18)"/><path class="cls-19" d="M67.14,182.18v2.33c-3.44,0-6.84.09-10.24,0a3.36,3.36,0,0,1-3.15-3.21c-.12-2.35,0-4.72,0-7.21,1.19,0,2.31,0,3.41,0a1.38,1.38,0,0,1,.94.6A16.88,16.88,0,0,0,67.14,182.18Zm-9.67-3.62a2.24,2.24,0,1,0,2.21,2.24A2.28,2.28,0,0,0,57.47,178.56Z" transform="translate(-0.18 -0.18)"/><path class="cls-19" d="M56.9,160.56c0,1.08-.34,1.55-1.47,1.52-2.66-.08-5.32,0-8,0-1.52,0-2,.49-2,2,0,1.71,0,3.42,0,5.12,0,1.29.54,1.82,1.82,1.83,2.71,0,5.42.06,8.12,0,1.07,0,1.53.34,1.51,1.52H50.2c-1.66,0-3.33,0-5,0-.89,0-1.29-.32-1.28-1.24,0-3.21,0-6.41,0-9.61,0-.69.22-1.15,1-1.15Z" transform="translate(-0.18 -0.18)"/><path class="cls-19" d="M54.48,165.11v1.38l1.38.11.33,2.85H47v-5.81h9.14L56,165Zm-4.6,0H48.53v1.36h1.35Zm1.62,1.35h1.36v-1.34H51.5Z" transform="translate(-0.18 -0.18)"/><path class="cls-19" d="M46.2,174.07h3c0,2.24.06,4.46,0,6.68,0,1.05-1,.76-1.65.8s-1.29-.07-1.3-.94C46.18,178.47,46.2,176.32,46.2,174.07Z" transform="translate(-0.18 -0.18)"/><path class="cls-19" d="M49.19,159h-3c0-1.72-.06-3.41,0-5.09.06-1.14,1-.8,1.73-.85s1.24.16,1.24,1Z" transform="translate(-0.18 -0.18)"/><path class="cls-19" d="M60.87,154.72a1.3,1.3,0,0,1,.14-2c.66-.58,1.35-.47,2.08.22Z" transform="translate(-0.18 -0.18)"/><path class="cls-20" d="M51.5,166.48v-1.34h1.36v1.34Z" transform="translate(-0.18 -0.18)"/><path class="cls-19" d="M72.48,162.06a4.5,4.5,0,1,1-4.54,4.51A4.52,4.52,0,0,1,72.48,162.06Zm0,1.5a3,3,0,1,0,0,6,3,3,0,0,0,0-6Z" transform="translate(-0.18 -0.18)"/><path class="cls-19" d="M67.05,157.42,70.93,156c0,1.63,0,3,0,4.32,0,.18-.29.5-.39.48s-.39-.27-.58-.43c0,0,0-.08,0-.12-.27-1.56-.5-3.17-3-2.25Z" transform="translate(-0.18 -0.18)"/><path class="cls-19" d="M74.8,160.88l1.55-2.69-1.52-1.62.2-.31L78.67,158C77,160.32,75.65,161.35,74.8,160.88Z" transform="translate(-0.18 -0.18)"/><path class="cls-19" d="M66.81,164.2l-2.71-1.54-1.64,1.47-.29-.18,1.69-3.64C66.15,162,67.18,163.29,66.81,164.2Z" transform="translate(-0.18 -0.18)"/><path class="cls-19" d="M82.89,164.9c-3.18.46-4.52.25-4.74-.72,1.49-.48,3.82-.15,2.91-3.19l.49.16Z" transform="translate(-0.18 -0.18)"/><path class="cls-19" d="M63.31,171.94l-1.38-3.87c1.61,0,3,0,4.31,0,.18,0,.35.34.53.52l-.49.45s-.08,0-.12,0c-1.65.18-3.06.59-2.34,2.95Z" transform="translate(-0.18 -0.18)"/><path class="cls-19" d="M80.79,170.45,82.38,169l.3.17L81,172.78c-2.27-1.58-3.38-3-2.93-3.86Z" transform="translate(-0.18 -0.18)"/><path class="cls-19" d="M69.83,176.84l-3.64-1.73c2-2.57,3-3.37,3.88-2.87l-1.53,2.66L70,176.48Z" transform="translate(-0.18 -0.18)"/><path class="cls-19" d="M77.83,175.67,74.17,177c-.58-2.36-.3-4.52.65-4.77.47,1.48.12,3.85,3.15,2.9Z" transform="translate(-0.18 -0.18)"/><path class="cls-19" d="M76.7,170.89l2.86,3c-1.16-.14-2.25.05-2.77-.42s-.43-1.57-.62-2.4Z" transform="translate(-0.18 -0.18)"/><path class="cls-19" d="M65.23,173.35c0-.6,0-1.22,0-1.82,0-.27.23-.68.43-.74a19.28,19.28,0,0,1,2.15-.36c0,.28,0,.63-.12.82-.65.8-1.37,1.55-2.06,2.32Z" transform="translate(-0.18 -0.18)"/><path class="cls-19" d="M79.68,160c-.06.6.14,1.7-.32,2.19s-1.58.45-2.41.63l-.08-.33Z" transform="translate(-0.18 -0.18)"/><path class="cls-21" d="M62.46,166.31a6.94,6.94,0,0,1,2.15-.79c.59,0,1.78.23,1.85,1H62.63Z" transform="translate(-0.18 -0.18)"/><path class="cls-19" d="M74,158.69c-.15.49-.17,1.67-1.46,1.94v-4.11Z" transform="translate(-0.18 -0.18)"/><path class="cls-19" d="M82.47,166.63l-1.88,2c-.8-.62-1.92-.69-2.22-2Z" transform="translate(-0.18 -0.18)"/><path class="cls-19" d="M72.4,172.5v3.86l-.24.18c-.54-.68-1.5-1.36-1.51-2A2,2,0,0,1,72.4,172.5Z" transform="translate(-0.18 -0.18)"/><path class="cls-19" d="M68.32,162.16l-2.63-2.87c.79.1,1.89-.06,2.4.41s.43,1.56.61,2.38Z" transform="translate(-0.18 -0.18)"/><path class="cls-20" d="M72.46,163.56a3,3,0,1,1-3,3A3,3,0,0,1,72.46,163.56Zm0,4.49a1.47,1.47,0,0,0,1.5-1.5,1.47,1.47,0,0,0-2.94-.06C70.92,167.41,71.51,167.9,72.41,168.05Z" transform="translate(-0.18 -0.18)"/><path class="cls-19" d="M72.41,168.05c-.9-.15-1.49-.64-1.44-1.56a1.47,1.47,0,0,1,2.94.06A1.47,1.47,0,0,1,72.41,168.05Z" transform="translate(-0.18 -0.18)"/><polyline class="cls-22" points="367.8 272.58 367.8 275.93 364.46 275.93"/><line class="cls-23" x1="357.71" y1="275.93" x2="37.35" y2="275.93"/><polyline class="cls-22" points="33.97 275.93 30.63 275.93 30.63 272.58"/><line class="cls-24" x1="30.63" y1="265.77" x2="30.63" y2="64.77"/><polyline class="cls-22" points="30.63 61.36 30.63 58.01 33.97 58.01"/><line class="cls-23" x1="40.72" y1="58.01" x2="361.08" y2="58.01"/><polyline class="cls-22" points="364.46 58.01 367.8 58.01 367.8 61.36"/><line class="cls-24" x1="367.8" y1="68.17" x2="367.8" y2="269.17"/><path class="cls-25" d="M9,304.94v-16l0-.16a10.64,10.64,0,0,1,1.82-5.35,10.89,10.89,0,0,1,7.43-4.78c.38-.06.77-.1,1.15-.14H136.81l.18,0a10.11,10.11,0,0,1,3.42.8,10.86,10.86,0,0,1,6.68,8.47c.07.37.1.75.15,1.13v16a.76.76,0,0,0,0,.16,10,10,0,0,1-.68,3.11,10.9,10.9,0,0,1-8.6,7c-.37.06-.75.09-1.12.14H19.43a.7.7,0,0,0-.14,0,10.77,10.77,0,0,1-6-2.25,10.91,10.91,0,0,1-4.18-7C9.08,305.7,9.05,305.32,9,304.94Zm17.94-12.29a10.4,10.4,0,0,0-1.06.51A4.37,4.37,0,0,0,24.17,298a4.72,4.72,0,0,0,2.43,2.87.29.29,0,0,1,.16.27,8,8,0,0,0,.17,1.38A4.42,4.42,0,0,0,32,305.75a3.59,3.59,0,0,0,1.74-.87,5.34,5.34,0,0,0,.48.35,5.54,5.54,0,0,0,.53.3,4.37,4.37,0,0,0,4.71-1,4.59,4.59,0,0,0,1.33-3.42.25.25,0,0,1,.15-.26,5.34,5.34,0,0,0,.68-.41,4.44,4.44,0,0,0,1.79-4.93A3.86,3.86,0,0,0,41,292.8l-.29-.1a7.18,7.18,0,0,0,0-.93,4.35,4.35,0,0,0-3.9-3.72,4.58,4.58,0,0,0-2.82.66.27.27,0,0,1-.32,0,4.4,4.4,0,0,0-4.56-.1A4,4,0,0,0,26.94,292.65ZM127,302.8V297c0-.76,0-.77.55-1.3a4.27,4.27,0,0,1,1.47-1,1.86,1.86,0,0,1,2.55,1.33,4.64,4.64,0,0,1,.15,1.11c0,1.8,0,3.61,0,5.41v.24h.52a1,1,0,0,0,0-.17c0-1.76,0-3.53,0-5.29a8.26,8.26,0,0,0-.11-1.22,2.29,2.29,0,0,0-2.86-2,3,3,0,0,0-1.43.74c-.36.3-.7.63-1,.95l0-.09a2.27,2.27,0,0,0-3.09-1.5,4.48,4.48,0,0,0-1.8,1.28.68.68,0,0,0-.09.17l-.07-.06-.07-1.31h-.45v8.48h.52V297c0-.74,0-.74.54-1.26a4.3,4.3,0,0,1,1.5-1,1.84,1.84,0,0,1,2.52,1.29,4.43,4.43,0,0,1,.16,1.15c0,1.8,0,3.61,0,5.41v.24ZM74,295.86c0-.08,0-.14-.06-.19a2.18,2.18,0,0,0-1.23-1.4,2.57,2.57,0,0,0-1.85,0,4.7,4.7,0,0,0-1.78,1.27l-.17.17c0-.11,0-.18,0-.24,0-.33,0-.65-.05-1,0,0,0-.14-.1-.15a2,2,0,0,0-.35,0v8.49h.51V297c0-.77,0-.77.56-1.3a4.14,4.14,0,0,1,1.5-1A1.85,1.85,0,0,1,73.48,296a5.65,5.65,0,0,1,.17,1.48c0,1.7,0,3.4,0,5.1v.22h.52v-.21c0-1.87,0-3.74,0-5.6a1.47,1.47,0,0,1,.53-1.25,5.47,5.47,0,0,1,1.4-1A1.86,1.86,0,0,1,78.75,296a6.37,6.37,0,0,1,.17,1.44c0,1.7,0,3.4,0,5.11v.21h.52v-5.45a5.23,5.23,0,0,0-.19-1.58,2.13,2.13,0,0,0-1.54-1.59,2.62,2.62,0,0,0-2.11.31,7.06,7.06,0,0,0-1.45,1.22Zm-16.77,1.79v.25c0,1.05,0,2.11,0,3.17a.81.81,0,0,1-.46.82,4.65,4.65,0,0,1-3.24.52,3.9,3.9,0,0,1-3-2.61,8,8,0,0,1-.19-5.19,4.17,4.17,0,0,1,4.07-3.23,3.59,3.59,0,0,1,2.42.78c.17.14.33.3.51.46l.34-.39a4.47,4.47,0,0,0-1.53-1.07,4.64,4.64,0,0,0-4,.24,4.94,4.94,0,0,0-2.49,3.23,8.65,8.65,0,0,0-.26,3.08,7,7,0,0,0,.72,2.72,4.5,4.5,0,0,0,2.62,2.35,5.34,5.34,0,0,0,2.72.14,4.13,4.13,0,0,0,2.16-1.09.33.33,0,0,0,.12-.28v-4.21c0-.06,0-.11,0-.17H54.33v.48Zm34.93-2,.16-.1a4.91,4.91,0,0,1,2.35-.92A1.87,1.87,0,0,1,96.85,296a10.73,10.73,0,0,1,.2,1.4c0,.11,0,.15-.15.17-.56.08-1.13.15-1.69.26a8.06,8.06,0,0,0-2.44.81,2.36,2.36,0,0,0-1.31,2.34,2,2,0,0,0,1.59,2,3.22,3.22,0,0,0,1.82,0,6.74,6.74,0,0,0,2-1.1l.17-.13c0,.28,0,.53.06.78s0,.4.43.37l0,0a.49.49,0,0,0,0-.12c0-1.85,0-3.71,0-5.57a5.37,5.37,0,0,0-.22-1.37,2,2,0,0,0-1.68-1.57,4.75,4.75,0,0,0-1.19,0,5.57,5.57,0,0,0-2.53,1s0,0,0,.06ZM59.62,306.1a1.87,1.87,0,0,1-.08.28c-.09.18,0,.25.16.3a2.1,2.1,0,0,0,2.12-.54A5,5,0,0,0,63,304.22l3.42-9.71c0-.06,0-.12.06-.21h-.36a.23.23,0,0,0-.27.18c-.28.85-.57,1.69-.86,2.53l-1.74,5.06a1.65,1.65,0,0,1-.11.26L63,302.1c-.54-1.36-1.08-2.72-1.61-4.09-.47-1.17-.92-2.35-1.38-3.53,0-.07-.08-.16-.14-.17a4.5,4.5,0,0,0-.52,0,1.56,1.56,0,0,0,.08.21c1,2.6,2.08,5.2,3.16,7.79a1.88,1.88,0,0,1,0,1.47,5.83,5.83,0,0,1-1,1.87,1.61,1.61,0,0,1-1.68.52Zm58.11-3.3v-8.48h-.53v6.18a.48.48,0,0,1-.08.27c-.34.36-.68.73-1.05,1.06a2.67,2.67,0,0,1-1.7.7,1.76,1.76,0,0,1-2-1.45,6.23,6.23,0,0,1-.15-1.44c0-1.7,0-3.4,0-5.1v-.22h-.52a.62.62,0,0,0,0,.13c0,1.78,0,3.57,0,5.36a8,8,0,0,0,.17,1.46,2,2,0,0,0,1.33,1.59,2.88,2.88,0,0,0,2.72-.36,15,15,0,0,0,1.13-1,1.39,1.39,0,0,0,.16-.17l.08,1.47Zm-34.46,0v-6.32a.39.39,0,0,1,.07-.25c.46-.41.92-.82,1.4-1.19a2.4,2.4,0,0,1,1.53-.45A1.71,1.71,0,0,1,88.13,296a6.35,6.35,0,0,1,.15,1.44c0,1.7,0,3.41,0,5.11v.22h.52c0-.06,0-.12,0-.17,0-1.76,0-3.51,0-5.27a6.73,6.73,0,0,0-.16-1.49,2.05,2.05,0,0,0-1.44-1.65,3.25,3.25,0,0,0-1.61-.06,3.83,3.83,0,0,0-1.64.9c-.23.19-.44.39-.69.61l-.08-1.35h-.45v8.48ZM105.13,295l-.15-.13a3.85,3.85,0,0,0-2.63-.71,2.45,2.45,0,0,0-1.82.93,2,2,0,0,0,.42,2.82,5.79,5.79,0,0,0,.64.36c.46.2.93.37,1.4.56a4.92,4.92,0,0,1,1.39.75,1.51,1.51,0,0,1,.54.85,1.75,1.75,0,0,1-1.33,2,3.43,3.43,0,0,1-2.77-.42l-.83-.56-.33.41a4.52,4.52,0,0,0,3.75,1.12,2.35,2.35,0,0,0,1.92-1.4,2.09,2.09,0,0,0-.32-2.28,2.86,2.86,0,0,0-1-.65c-.75-.31-1.5-.61-2.24-.93a1.73,1.73,0,0,1-1-1,1.62,1.62,0,0,1,1.06-2,2.89,2.89,0,0,1,2.37.23l.64.4Zm3.27,7.85v-8.48h-.51v8.48Zm.32-11.3a.55.55,0,0,0-.54-.61.57.57,0,0,0-.59.59.6.6,0,0,0,.56.65A.57.57,0,0,0,108.72,291.5Z" transform="translate(-0.18 -0.18)"/><path d="M26.94,292.65a4,4,0,0,1,2.14-4,4.4,4.4,0,0,1,4.56.1.27.27,0,0,0,.32,0,4.58,4.58,0,0,1,2.82-.66,4.35,4.35,0,0,1,3.9,3.72,7.18,7.18,0,0,1,0,.93l.29.1a3.86,3.86,0,0,1,2.44,2.73,4.44,4.44,0,0,1-1.79,4.93,5.34,5.34,0,0,1-.68.41.25.25,0,0,0-.15.26,4.59,4.59,0,0,1-1.33,3.42,4.37,4.37,0,0,1-4.71,1,5.54,5.54,0,0,1-.53-.3,5.34,5.34,0,0,1-.48-.35,3.59,3.59,0,0,1-1.74.87,4.42,4.42,0,0,1-5.08-3.25,8,8,0,0,1-.17-1.38.29.29,0,0,0-.16-.27A4.72,4.72,0,0,1,24.17,298a4.37,4.37,0,0,1,1.71-4.82A10.4,10.4,0,0,1,26.94,292.65Zm13.63.44a5.37,5.37,0,0,1-2.71,3A7,7,0,0,1,39.8,298a6.23,6.23,0,0,1,1,2.56c.14-.09.27-.15.38-.23a8,8,0,0,0,.72-.55,4.06,4.06,0,0,0,.39-5.62A3.19,3.19,0,0,0,40.57,293.09ZM29.71,296a7.07,7.07,0,0,1-1.64-1.22,4.29,4.29,0,0,1-1-1.71c-1.26.15-2.47,1.65-2.62,3.28a4.11,4.11,0,0,0,2.37,4.1A6.5,6.5,0,0,1,29.71,296Zm1.51-.31a6.11,6.11,0,0,0-4,5,6.28,6.28,0,0,0,6.3-1A7.12,7.12,0,0,1,31.22,295.72Zm4.86-.52a6.61,6.61,0,0,0-.37-3.45,5.43,5.43,0,0,0-1.79-2.39c-.09-.07-.15-.08-.24,0a9.31,9.31,0,0,0-.84.82,6.1,6.1,0,0,0-1.38,4.48c0,.17,0,.33.06.52A7.05,7.05,0,0,1,36.08,295.2Zm-2,4.47c.44.27.83.54,1.26.75a6.1,6.1,0,0,0,4.57.46c.57-.18.52-.06.4-.66a6,6,0,0,0-2.43-3.67,6.92,6.92,0,0,0-1.49-.82A7.2,7.2,0,0,1,34.08,299.67Zm0,4.91a3.64,3.64,0,0,0,4.15.42,4.07,4.07,0,0,0,2.2-3.86,6.64,6.64,0,0,1-5.34-.41A5.27,5.27,0,0,1,34,304.58Zm-6.93-3.48c.05.39.07.73.14,1.07A4,4,0,0,0,32,305.34a3.07,3.07,0,0,0,1.46-.76,4.17,4.17,0,0,1-.86-1.8,6.54,6.54,0,0,1-.12-2A6.64,6.64,0,0,1,27.11,301.1Zm3.94-7.22a6.35,6.35,0,0,1,2.38-4.83l-.09-.06a4.19,4.19,0,0,0-2.84-.5,4,4,0,0,0-3.16,3.11,2.34,2.34,0,0,0,0,1A5.27,5.27,0,0,1,31.05,293.88Zm9.2-1.26a3.54,3.54,0,0,0-1.7-3.53,4,4,0,0,0-4.37,0,6.37,6.37,0,0,1,2.38,4.82A5.26,5.26,0,0,1,40.25,292.62Zm-4.24,3a6.7,6.7,0,0,0-4.42,0,6.71,6.71,0,0,0,2.21,3.81A6.72,6.72,0,0,0,36,295.59Zm.47-.27.85.43a.24.24,0,0,0,.27,0c.29-.18.59-.34.86-.53a4.46,4.46,0,0,0,1.59-1.85l.14-.38a9.6,9.6,0,0,0-1,.07,5.75,5.75,0,0,0-2.59,1.28.21.21,0,0,0-.07.12C36.52,294.74,36.5,295,36.48,295.32Zm-2.68,4.61-.78.54a.22.22,0,0,0-.09.14,5.92,5.92,0,0,0,.18,2.44,3.47,3.47,0,0,0,.66,1.24A3,3,0,0,0,34,304a5.16,5.16,0,0,0,.63-3.42.21.21,0,0,0-.07-.12Zm-2.67-4.63c0-.28-.05-.56-.08-.84a.16.16,0,0,0-.07-.12,5.67,5.67,0,0,0-2.63-1.3c-.29,0-.6,0-.9-.05l0,.07c.15.28.27.58.44.84A5.58,5.58,0,0,0,30,295.75a.17.17,0,0,0,.14,0Z" transform="translate(-0.18 -0.18)"/><path class="cls-26" d="M127,302.8h-.53v-.24c0-1.8,0-3.61,0-5.41a4.43,4.43,0,0,0-.16-1.15,1.84,1.84,0,0,0-2.52-1.29,4.3,4.3,0,0,0-1.5,1c-.54.52-.54.52-.54,1.26v5.81h-.52v-8.48h.45l.07,1.31.07.06a.68.68,0,0,1,.09-.17,4.48,4.48,0,0,1,1.8-1.28,2.27,2.27,0,0,1,3.09,1.5l0,.09c.35-.32.69-.65,1-.95a3,3,0,0,1,1.43-.74,2.29,2.29,0,0,1,2.86,2,8.26,8.26,0,0,1,.11,1.22c0,1.76,0,3.53,0,5.29a1,1,0,0,1,0,.17h-.52v-.24c0-1.8,0-3.61,0-5.41a4.64,4.64,0,0,0-.15-1.11,1.86,1.86,0,0,0-2.55-1.33,4.27,4.27,0,0,0-1.47,1c-.55.53-.55.54-.55,1.3v5.79Z" transform="translate(-0.18 -0.18)"/><path class="cls-26" d="M74,295.86l.15-.15a7.06,7.06,0,0,1,1.45-1.22,2.62,2.62,0,0,1,2.11-.31,2.13,2.13,0,0,1,1.54,1.59,5.23,5.23,0,0,1,.19,1.58v5.45h-.52v-.21c0-1.71,0-3.41,0-5.11a6.37,6.37,0,0,0-.17-1.44,1.86,1.86,0,0,0-2.65-1.29,5.47,5.47,0,0,0-1.4,1,1.47,1.47,0,0,0-.53,1.25c0,1.86,0,3.73,0,5.6v.21h-.52v-.22c0-1.7,0-3.4,0-5.1a5.65,5.65,0,0,0-.17-1.48A1.85,1.85,0,0,0,71,294.71a4.14,4.14,0,0,0-1.5,1c-.56.53-.56.53-.56,1.3v5.78H68.4v-8.49a2,2,0,0,1,.35,0s.1.1.1.15c0,.33,0,.65.05,1,0,.06,0,.13,0,.24l.17-.17a4.7,4.7,0,0,1,1.78-1.27,2.57,2.57,0,0,1,1.85,0,2.18,2.18,0,0,1,1.23,1.4C74,295.72,74,295.78,74,295.86Z" transform="translate(-0.18 -0.18)"/><path class="cls-26" d="M57.24,297.65H54.33v-.48H57.8c0,.06,0,.11,0,.17v4.21a.33.33,0,0,1-.12.28,4.13,4.13,0,0,1-2.16,1.09,5.34,5.34,0,0,1-2.72-.14,4.5,4.5,0,0,1-2.62-2.35,7,7,0,0,1-.72-2.72,8.65,8.65,0,0,1,.26-3.08,4.94,4.94,0,0,1,2.49-3.23,4.64,4.64,0,0,1,4-.24,4.47,4.47,0,0,1,1.53,1.07l-.34.39c-.18-.16-.34-.32-.51-.46a3.59,3.59,0,0,0-2.42-.78,4.17,4.17,0,0,0-4.07,3.23,8,8,0,0,0,.19,5.19,3.9,3.9,0,0,0,3,2.61,4.65,4.65,0,0,0,3.24-.52.81.81,0,0,0,.46-.82c0-1.06,0-2.12,0-3.17Z" transform="translate(-0.18 -0.18)"/><path class="cls-26" d="M92.17,295.61l-.27-.4s0,0,0-.06a5.57,5.57,0,0,1,2.53-1,4.75,4.75,0,0,1,1.19,0,2,2,0,0,1,1.68,1.57,5.37,5.37,0,0,1,.22,1.37c0,1.86,0,3.72,0,5.57a.49.49,0,0,1,0,.12l0,0c-.41,0-.41,0-.43-.37s0-.5-.06-.78l-.17.13a6.74,6.74,0,0,1-2,1.1,3.22,3.22,0,0,1-1.82,0,2,2,0,0,1-1.59-2,2.36,2.36,0,0,1,1.31-2.34,8.06,8.06,0,0,1,2.44-.81c.56-.11,1.13-.18,1.69-.26.12,0,.17-.06.15-.17a10.73,10.73,0,0,0-.2-1.4,1.87,1.87,0,0,0-2.17-1.37,4.91,4.91,0,0,0-2.35.92Zm4.88,2.33c-.74.13-1.45.25-2.15.39a6.37,6.37,0,0,0-1.73.61,2,2,0,0,0-1.12,2.13,1.44,1.44,0,0,0,.89,1.25,2.76,2.76,0,0,0,2.2,0,6.48,6.48,0,0,0,1.78-1.13.36.36,0,0,0,.12-.26c0-.91,0-1.82,0-2.74Z" transform="translate(-0.18 -0.18)"/><path class="cls-26" d="M59.62,306.1l.3.07a1.61,1.61,0,0,0,1.68-.52,5.83,5.83,0,0,0,1-1.87,1.88,1.88,0,0,0,0-1.47c-1.08-2.59-2.11-5.19-3.16-7.79a1.56,1.56,0,0,1-.08-.21,4.5,4.5,0,0,1,.52,0c.06,0,.11.1.14.17.46,1.18.91,2.36,1.38,3.53.53,1.37,1.07,2.73,1.61,4.09l.11.23a1.65,1.65,0,0,0,.11-.26L65,297c.29-.84.58-1.68.86-2.53a.23.23,0,0,1,.27-.18h.36c0,.09,0,.15-.06.21L63,304.22a5,5,0,0,1-1.15,1.92,2.1,2.1,0,0,1-2.12.54c-.17-.05-.25-.12-.16-.3A1.87,1.87,0,0,0,59.62,306.1Z" transform="translate(-0.18 -0.18)"/><path class="cls-26" d="M117.73,302.8h-.45l-.08-1.47a1.39,1.39,0,0,1-.16.17,15,15,0,0,1-1.13,1,2.88,2.88,0,0,1-2.72.36,2,2,0,0,1-1.33-1.59,8,8,0,0,1-.17-1.46c0-1.79,0-3.58,0-5.36a.62.62,0,0,1,0-.13h.52v.22c0,1.7,0,3.4,0,5.1a6.23,6.23,0,0,0,.15,1.44,1.76,1.76,0,0,0,2,1.45,2.67,2.67,0,0,0,1.7-.7c.37-.33.71-.7,1.05-1.06a.48.48,0,0,0,.08-.27v-6.18h.53Z" transform="translate(-0.18 -0.18)"/><path class="cls-26" d="M83.27,302.8h-.53v-8.48h.45l.08,1.35c.25-.22.46-.42.69-.61a3.83,3.83,0,0,1,1.64-.9,3.25,3.25,0,0,1,1.61.06,2.05,2.05,0,0,1,1.44,1.65,6.73,6.73,0,0,1,.16,1.49c0,1.76,0,3.51,0,5.27,0,.05,0,.11,0,.17h-.52v-.22c0-1.7,0-3.41,0-5.11a6.35,6.35,0,0,0-.15-1.44,1.71,1.71,0,0,0-1.86-1.44,2.4,2.4,0,0,0-1.53.45c-.48.37-.94.78-1.4,1.19a.39.39,0,0,0-.07.25v6.32Z" transform="translate(-0.18 -0.18)"/><path class="cls-26" d="M105.13,295l-.31.41-.64-.4a2.89,2.89,0,0,0-2.37-.23,1.62,1.62,0,0,0-1.06,2,1.73,1.73,0,0,0,1,1c.74.32,1.49.62,2.24.93a2.86,2.86,0,0,1,1,.65,2.09,2.09,0,0,1,.32,2.28,2.35,2.35,0,0,1-1.92,1.4,4.52,4.52,0,0,1-3.75-1.12l.33-.41.83.56a3.43,3.43,0,0,0,2.77.42,1.75,1.75,0,0,0,1.33-2,1.51,1.51,0,0,0-.54-.85,4.92,4.92,0,0,0-1.39-.75c-.47-.19-.94-.36-1.4-.56a5.79,5.79,0,0,1-.64-.36,2,2,0,0,1-.42-2.82,2.45,2.45,0,0,1,1.82-.93,3.85,3.85,0,0,1,2.63.71Z" transform="translate(-0.18 -0.18)"/><path class="cls-26" d="M108.4,302.8h-.51v-8.48h.51Z" transform="translate(-0.18 -0.18)"/><path class="cls-26" d="M108.72,291.5a.57.57,0,0,1-.57.63.6.6,0,0,1-.56-.65.57.57,0,0,1,.59-.59A.55.55,0,0,1,108.72,291.5Z" transform="translate(-0.18 -0.18)"/><path class="cls-27" d="M40.57,293.09a3.19,3.19,0,0,1,1.69,1.05,4.06,4.06,0,0,1-.39,5.62,8,8,0,0,1-.72.55c-.11.08-.24.14-.38.23a6.23,6.23,0,0,0-1-2.56,7,7,0,0,0-1.94-1.92A5.37,5.37,0,0,0,40.57,293.09Z" transform="translate(-0.18 -0.18)"/><path class="cls-27" d="M29.71,296a6.5,6.5,0,0,0-2.92,4.45,4.11,4.11,0,0,1-2.37-4.1c.15-1.63,1.36-3.13,2.62-3.28a4.29,4.29,0,0,0,1,1.71A7.07,7.07,0,0,0,29.71,296Z" transform="translate(-0.18 -0.18)"/><path class="cls-1" d="M31.22,295.72a7.12,7.12,0,0,0,2.27,3.92,6.28,6.28,0,0,1-6.3,1A6.11,6.11,0,0,1,31.22,295.72Z" transform="translate(-0.18 -0.18)"/><path class="cls-1" d="M36.08,295.2a7.05,7.05,0,0,0-4.56,0c0-.19-.05-.35-.06-.52a6.1,6.1,0,0,1,1.38-4.48,9.31,9.31,0,0,1,.84-.82c.09-.08.15-.07.24,0a5.43,5.43,0,0,1,1.79,2.39A6.61,6.61,0,0,1,36.08,295.2Z" transform="translate(-0.18 -0.18)"/><path class="cls-1" d="M34.08,299.67a7.2,7.2,0,0,0,2.31-3.94,6.92,6.92,0,0,1,1.49.82,6,6,0,0,1,2.43,3.67c.12.6.17.48-.4.66a6.1,6.1,0,0,1-4.57-.46C34.91,300.21,34.52,299.94,34.08,299.67Z" transform="translate(-0.18 -0.18)"/><path class="cls-27" d="M34,304.58a5.27,5.27,0,0,0,1-3.85,6.64,6.64,0,0,0,5.34.41,4.07,4.07,0,0,1-2.2,3.86A3.64,3.64,0,0,1,34,304.58Z" transform="translate(-0.18 -0.18)"/><path class="cls-27" d="M27.11,301.1a6.64,6.64,0,0,0,5.4-.35,6.54,6.54,0,0,0,.12,2,4.17,4.17,0,0,0,.86,1.8,3.07,3.07,0,0,1-1.46.76,4,4,0,0,1-4.78-3.17C27.18,301.83,27.16,301.49,27.11,301.1Z" transform="translate(-0.18 -0.18)"/><path class="cls-27" d="M31.05,293.88a5.27,5.27,0,0,0-3.7-1.26,2.34,2.34,0,0,1,0-1,4,4,0,0,1,3.16-3.11,4.19,4.19,0,0,1,2.84.5l.09.06A6.35,6.35,0,0,0,31.05,293.88Z" transform="translate(-0.18 -0.18)"/><path class="cls-27" d="M40.25,292.62a5.26,5.26,0,0,0-3.69,1.26,6.37,6.37,0,0,0-2.38-4.82,4,4,0,0,1,4.37,0A3.54,3.54,0,0,1,40.25,292.62Z" transform="translate(-0.18 -0.18)"/><path class="cls-27" d="M36,295.59a6.72,6.72,0,0,1-2.21,3.8,6.71,6.71,0,0,1-2.21-3.81A6.7,6.7,0,0,1,36,295.59Z" transform="translate(-0.18 -0.18)"/><path class="cls-27" d="M36.48,295.32c0-.29,0-.58.07-.87a.21.21,0,0,1,.07-.12,5.75,5.75,0,0,1,2.59-1.28,9.6,9.6,0,0,1,1-.07l-.14.38a4.46,4.46,0,0,1-1.59,1.85c-.27.19-.57.35-.86.53a.24.24,0,0,1-.27,0Z" transform="translate(-0.18 -0.18)"/><path class="cls-27" d="M33.8,299.93l.75.51a.21.21,0,0,1,.07.12A5.16,5.16,0,0,1,34,304a3,3,0,0,1-.22.31,3.47,3.47,0,0,1-.66-1.24,5.92,5.92,0,0,1-.18-2.44.22.22,0,0,1,.09-.14Z" transform="translate(-0.18 -0.18)"/><path class="cls-27" d="M31.13,295.3l-1,.46a.17.17,0,0,1-.14,0,5.58,5.58,0,0,1-2.18-1.85c-.17-.26-.29-.56-.44-.84l0-.07c.3,0,.61,0,.9.05a5.67,5.67,0,0,1,2.63,1.3.16.16,0,0,1,.07.12C31.08,294.74,31.1,295,31.13,295.3Z" transform="translate(-0.18 -0.18)"/><text class="cls-28" transform="translate(25.47 21.12)">Standa<tspan class="cls-29" x="50" y="0">r</tspan><tspan x="56.34" y="0">dized interface</tspan></text><path class="cls-25" d="M365.83,277.45H273.07V247.81h92.76Zm-66.1-16.22a5.7,5.7,0,0,1-2.87.66H276.4c-.88,0-1.13.27-1.15,1.13a13.78,13.78,0,0,0,.76,4.77,7.66,7.66,0,0,0,5.17,5.32,19.2,19.2,0,0,0,9.64.2A14.37,14.37,0,0,0,299,268.5a18.51,18.51,0,0,0,3-5.1.77.77,0,0,1,.79-.55,4.58,4.58,0,0,0,4-2.24c.42-.75.38-1-.47-1.25a11.63,11.63,0,0,0-2.76-.31c-.53,0-.71-.14-.86-.64a4.66,4.66,0,0,0-2.48-3A5.27,5.27,0,0,0,299.73,261.23Zm16.7,1.59c-.38-.2-.59-.31-.79-.43a4.31,4.31,0,0,0-3.17-.55,4.62,4.62,0,0,0-3.69,5.49,4.49,4.49,0,0,0,4.53,3.78A4.59,4.59,0,0,0,318,266.3c.05-2.46,0-4.92,0-7.38a2.82,2.82,0,0,0-.08-.65.72.72,0,0,0-.87-.56.68.68,0,0,0-.62.75v4.36Zm32.43,4.37h6.51c.64,0,1.05-.33,1-.85a4.84,4.84,0,0,0-.94-2.73,4.66,4.66,0,0,0-5.48-1.5,4.59,4.59,0,0,0-2.81,4.86,4.42,4.42,0,0,0,2.94,3.75,4.36,4.36,0,0,0,4.51-.68c.53-.42.63-.9.32-1.29s-.76-.37-1.27.05a3,3,0,0,1-2.17.67A2.85,2.85,0,0,1,348.86,267.19Zm-8.48-2.05-.17-.1v-6.29c0-.69-.29-1.06-.8-1.05s-.77.34-.77,1v11.34c0,.57.33,1,.76,1s.8-.39.81-1c0-.82,0-1.64,0-2.46a1,1,0,0,1,.32-.64c.78-.63.82-.6,1.48.16q1.56,1.78,3.14,3.55a.79.79,0,0,0,1.16.22c.38-.27.39-.76,0-1.22l-.11-.14c-1-1.17-2.06-2.35-3.12-3.49-.38-.4-.31-.59.11-.86,1-.63,2-1.29,3-1.94a.74.74,0,0,0,.29-1.08.75.75,0,0,0-1.1-.23,3.14,3.14,0,0,0-.31.18l-2.91,1.9C341.59,264.38,341,264.76,340.38,265.14Zm-12,1.33a4.71,4.71,0,0,0-4.85-4.71,4.61,4.61,0,0,0-4.45,4.72,4.51,4.51,0,0,0,4.62,4.63A4.6,4.6,0,0,0,328.41,266.47Zm5.71-4.79a10.29,10.29,0,0,0-1.78.44,4.44,4.44,0,0,0-2.8,4,4.34,4.34,0,0,0,2.58,4.42,4.4,4.4,0,0,0,4.85-.48c.47-.34.58-.74.3-1.12a.76.76,0,0,0-1.15-.18c-.14.08-.27.18-.4.26a3.06,3.06,0,0,1-4.5-3.56,3.07,3.07,0,0,1,4.78-1.52c.55.39,1.06.33,1.32-.07s.11-.82-.44-1.21A4.89,4.89,0,0,0,334.12,261.68Zm25.07,1.07c-.07-.2-.08-.37-.17-.45s-.49-.48-.73-.48-.52.3-.69.53a1.29,1.29,0,0,0-.11.69c0,1.26,0,2.53,0,3.79,0,1,0,2.08,0,3.12,0,.63.4,1.06.86,1s.71-.39.71-1.06c0-1.08,0-2.16,0-3.24a3.15,3.15,0,0,1,4.2-3.2c.62.17,1,0,1.15-.4s-.09-.92-.72-1.11a4.73,4.73,0,0,0-3.45.2C359.91,262.34,359.59,262.53,359.19,262.75Zm-75.81-1.68c.34,0,.68,0,1,0s.62-.14.6-.59,0-1.15,0-1.73c0-.41-.19-.57-.58-.57h-1.19c-1.55,0-1.36-.18-1.36,1.37S281.86,261.07,283.38,261.07Zm4,0c.32,0,.64,0,.95,0,.48,0,.65-.17.62-.63s0-1.11,0-1.67c0-.41-.16-.59-.56-.59h-1.25c-1.48,0-1.31-.16-1.32,1.3S285.83,261.07,287.39,261.07Zm-7.88,0c.32,0,.64,0,1,0s.59-.13.58-.55c0-.6,0-1.2,0-1.8,0-.37-.14-.55-.53-.54H279.2c-1.45,0-1.29-.06-1.29,1.29C277.92,261.27,277.72,261.05,279.51,261.07Zm11.82,0c.32,0,.64,0,1,0,.48,0,.65-.19.63-.64s0-1.08,0-1.62-.21-.65-.66-.63h-1.14c-1.5,0-1.34-.18-1.34,1.34S289.78,261.07,291.33,261.07Zm4,0c.32,0,.64,0,1,0s.63-.17.61-.6c0-.16,0-.32,0-.48,0-2.08.27-1.8-1.82-1.81-1.47,0-1.32-.17-1.32,1.3S293.74,261.07,295.31,261.07Zm-4-7.32h1c.37,0,.57-.12.56-.51,0-.6,0-1.21,0-1.8a.66.66,0,0,0-.45-.45,9.89,9.89,0,0,0-1.44,0c-1.37,0-1.22-.18-1.23,1.2C289.77,253.75,289.77,253.75,291.34,253.75Zm-7.92,3.63h1.08c.36,0,.51-.15.5-.51q0-.9,0-1.8c0-.36-.17-.5-.51-.49s-.92,0-1.38,0c-1.39,0-1.24-.15-1.24,1.26S281.87,257.38,283.42,257.38Zm4-2.8c-.36,0-.72,0-1.08,0s-.5.16-.49.51q0,.9,0,1.8c0,.36.14.51.5.5h1.37c1.43,0,1.25.08,1.26-1.26C289,254.58,289,254.58,287.4,254.58Zm3.88,2.79a6.19,6.19,0,0,0,1.14,0c.18,0,.46-.27.47-.44a16.29,16.29,0,0,0,0-1.85c0-.36-.2-.49-.54-.48s-.88,0-1.32,0c-1.44,0-1.27-.21-1.28,1.27S289.77,257.38,291.28,257.37Z" transform="translate(-0.18 -0.18)"/><path class="cls-30" d="M299.73,261.23a5.27,5.27,0,0,1,.5-5.79,4.66,4.66,0,0,1,2.48,3c.15.5.33.63.86.64a11.63,11.63,0,0,1,2.76.31c.85.22.89.5.47,1.25a4.58,4.58,0,0,1-4,2.24.77.77,0,0,0-.79.55,18.51,18.51,0,0,1-3,5.1,14.37,14.37,0,0,1-8.22,4.82,19.2,19.2,0,0,1-9.64-.2A7.66,7.66,0,0,1,276,267.8a13.78,13.78,0,0,1-.76-4.77c0-.86.27-1.13,1.15-1.13h20.46A5.7,5.7,0,0,0,299.73,261.23Z" transform="translate(-0.18 -0.18)"/><path class="cls-30" d="M316.43,262.82v-4.36a.68.68,0,0,1,.62-.75.72.72,0,0,1,.87.56,2.82,2.82,0,0,1,.08.65c0,2.46,0,4.92,0,7.38a4.59,4.59,0,0,1-4.68,4.81,4.49,4.49,0,0,1-4.53-3.78,4.62,4.62,0,0,1,3.69-5.49,4.31,4.31,0,0,1,3.17.55C315.84,262.51,316.05,262.62,316.43,262.82Zm-3.06.53a3,3,0,0,0-3.11,3.09,3.08,3.08,0,0,0,3,3,3.11,3.11,0,0,0,3.13-3A3,3,0,0,0,313.37,263.35Z" transform="translate(-0.18 -0.18)"/><path class="cls-30" d="M348.86,267.19a2.85,2.85,0,0,0,2.62,2.28,3,3,0,0,0,2.17-.67c.51-.42,1-.42,1.27-.05s.21.87-.32,1.29a4.36,4.36,0,0,1-4.51.68,4.42,4.42,0,0,1-2.94-3.75,4.59,4.59,0,0,1,2.81-4.86,4.66,4.66,0,0,1,5.48,1.5,4.84,4.84,0,0,1,.94,2.73c0,.52-.37.85-1,.85h-6.51Zm0-1.61c.26,0,.45,0,.65,0H354c.65,0,.74-.17.42-.74a3.1,3.1,0,0,0-4.42-1A2.32,2.32,0,0,0,348.84,265.58Z" transform="translate(-0.18 -0.18)"/><path class="cls-30" d="M340.38,265.14c.6-.38,1.21-.76,1.8-1.15l2.91-1.9a3.14,3.14,0,0,1,.31-.18.75.75,0,0,1,1.1.23.74.74,0,0,1-.29,1.08c-1,.65-2,1.31-3,1.94-.42.27-.49.46-.11.86,1.06,1.14,2.08,2.32,3.12,3.49l.11.14c.35.46.34,1,0,1.22a.79.79,0,0,1-1.16-.22q-1.57-1.77-3.14-3.55c-.66-.76-.7-.79-1.48-.16a1,1,0,0,0-.32.64c0,.82,0,1.64,0,2.46,0,.6-.34,1-.81,1s-.76-.41-.76-1V258.71c0-.67.27-1,.77-1s.79.36.8,1.05V265Z" transform="translate(-0.18 -0.18)"/><path class="cls-30" d="M328.41,266.47a4.6,4.6,0,0,1-4.68,4.64,4.51,4.51,0,0,1-4.62-4.63,4.61,4.61,0,0,1,4.45-4.72A4.71,4.71,0,0,1,328.41,266.47Zm-4.64-3.12a3.07,3.07,0,0,0-3.11,3.06,3.09,3.09,0,0,0,6.17,0A3.07,3.07,0,0,0,323.77,263.35Z" transform="translate(-0.18 -0.18)"/><path class="cls-30" d="M334.12,261.68a4.89,4.89,0,0,1,2.76,1c.55.39.69.82.44,1.21s-.77.46-1.32.07a3.07,3.07,0,0,0-3.76,4.86,3,3,0,0,0,3.48.22c.13-.08.26-.18.4-.26a.76.76,0,0,1,1.15.18c.28.38.17.78-.3,1.12a4.4,4.4,0,0,1-4.85.48,4.34,4.34,0,0,1-2.58-4.42,4.44,4.44,0,0,1,2.8-4A10.29,10.29,0,0,1,334.12,261.68Z" transform="translate(-0.18 -0.18)"/><path class="cls-30" d="M359.19,262.75c.4-.22.72-.41,1.06-.57a4.73,4.73,0,0,1,3.45-.2c.63.19.88.62.72,1.11s-.53.57-1.15.4a3.15,3.15,0,0,0-4.2,3.2c0,1.08,0,2.16,0,3.24,0,.67-.26,1.05-.71,1.06s-.84-.41-.86-1c0-1,0-2.08,0-3.12,0-1.26,0-2.53,0-3.79a1.29,1.29,0,0,1,.11-.69c.17-.23.45-.52.69-.53s.51.29.73.48S359.12,262.55,359.19,262.75Z" transform="translate(-0.18 -0.18)"/><path class="cls-30" d="M283.38,261.07c-1.52,0-1.52,0-1.51-1.52s-.19-1.35,1.36-1.37h1.19c.39,0,.59.16.58.57,0,.58,0,1.16,0,1.73s-.18.62-.6.59S283.72,261.07,283.38,261.07Z" transform="translate(-0.18 -0.18)"/><path class="cls-30" d="M287.39,261.07c-1.56,0-1.57,0-1.56-1.59s-.16-1.29,1.32-1.3h1.25c.4,0,.57.18.56.59,0,.56,0,1.11,0,1.67s-.14.67-.62.63C288,261.05,287.71,261.07,287.39,261.07Z" transform="translate(-0.18 -0.18)"/><path class="cls-30" d="M279.51,261.07c-1.79,0-1.59.2-1.6-1.6,0-1.35-.16-1.3,1.29-1.29h1.32c.39,0,.54.17.53.54,0,.6,0,1.2,0,1.8,0,.42-.18.57-.58.55S279.83,261.07,279.51,261.07Z" transform="translate(-0.18 -0.18)"/><path class="cls-30" d="M291.33,261.07c-1.55,0-1.56,0-1.55-1.55s-.16-1.33,1.34-1.34h1.14c.45,0,.67.17.66.63s0,1.08,0,1.62-.15.67-.63.64C292,261.05,291.65,261.07,291.33,261.07Z" transform="translate(-0.18 -0.18)"/><path class="cls-30" d="M295.31,261.07c-1.57,0-1.58,0-1.57-1.59s-.15-1.3,1.32-1.3c2.09,0,1.8-.27,1.82,1.81,0,.16,0,.32,0,.48,0,.43-.17.63-.61.6S295.63,261.07,295.31,261.07Z" transform="translate(-0.18 -0.18)"/><path class="cls-30" d="M291.34,253.75c-1.57,0-1.57,0-1.57-1.58,0-1.38-.14-1.19,1.23-1.2a9.89,9.89,0,0,1,1.44,0,.66.66,0,0,1,.45.45c.06.59,0,1.2,0,1.8,0,.39-.19.52-.56.51Z" transform="translate(-0.18 -0.18)"/><path class="cls-30" d="M283.42,257.38c-1.55,0-1.56,0-1.55-1.54s-.15-1.25,1.24-1.26c.46,0,.92,0,1.38,0s.51.13.51.49q0,.9,0,1.8c0,.36-.14.52-.5.51Z" transform="translate(-0.18 -0.18)"/><path class="cls-30" d="M287.4,254.58c1.56,0,1.56,0,1.56,1.54,0,1.34.17,1.26-1.26,1.26h-1.37c-.36,0-.51-.14-.5-.5q0-.9,0-1.8c0-.35.13-.52.49-.51S287,254.58,287.4,254.58Z" transform="translate(-0.18 -0.18)"/><path class="cls-30" d="M291.28,257.37c-1.51,0-1.51,0-1.51-1.52s-.16-1.25,1.28-1.27c.44,0,.88,0,1.32,0s.54.12.54.48a16.29,16.29,0,0,1,0,1.85c0,.17-.29.41-.47.44A6.19,6.19,0,0,1,291.28,257.37Z" transform="translate(-0.18 -0.18)"/><path class="cls-25" d="M313.37,263.35a3,3,0,0,1,3,3.06,3.11,3.11,0,0,1-3.13,3,3.08,3.08,0,0,1-3-3A3,3,0,0,1,313.37,263.35Z" transform="translate(-0.18 -0.18)"/><path class="cls-25" d="M348.84,265.58a2.32,2.32,0,0,1,1.15-1.71,3.1,3.1,0,0,1,4.42,1c.32.57.23.74-.42.74h-4.5C349.29,265.62,349.1,265.6,348.84,265.58Z" transform="translate(-0.18 -0.18)"/><path class="cls-25" d="M323.77,263.35a3.07,3.07,0,0,1,3.06,3,3.09,3.09,0,0,1-6.17,0A3.07,3.07,0,0,1,323.77,263.35Z" transform="translate(-0.18 -0.18)"/><text class="cls-31" transform="translate(243.3 50.43)">AlphaDataCenterCooling</text><rect class="cls-32" x="527.36" y="86.3" width="136.16" height="140.13"/><text class="cls-33" transform="translate(564.14 137.38)">Control<tspan x="-10.69" y="24.3">Algorithm</tspan><tspan x="0.58" y="48.6">(Agent)</tspan></text><path class="cls-34" d="M595.47,71c-9.6-8.45-26.58-20.53-54.15-30.12-25.91-9-50.52-12.13-65.48-13.34" transform="translate(-0.18 -0.18)"/><polygon points="595.84 64.93 594.07 69.82 589.33 71.94 600.89 76.15 595.84 64.93"/><path class="cls-35" d="M480.43,281.63c21.52-3.7,55.9-10.9,82.68-23.31,23-10.65,30.91-20.77,34-26.92" transform="translate(-0.18 -0.18)"/><polygon points="484.63 285.46 481.81 281.09 482.98 276.03 472.64 282.7 484.63 285.46"/><text class="cls-36" transform="translate(539.39 33.72)">Observation</text><text class="cls-36" transform="translate(552.82 278.44)">Action</text></svg>